<svg width="347" height="377" viewBox="0 0 347 377" fill="none" xmlns="http://www.w3.org/2000/svg">
<g id="circulo-star">
<circle id="circulo" cx="173.5" cy="189.5" r="172.5" stroke="white" stroke-width="2" stroke-dasharray="30 20"/>
<path id="star" d="M168.176 1.14794L164.026 9.68048L154.741 11.0532C153.076 11.2981 152.409 13.3796 153.616 14.5719L160.334 21.2097L158.745 30.5865C158.459 32.2814 160.219 33.551 161.694 32.7583L170 28.3309L178.306 32.7583C179.781 33.5445 181.541 32.2814 181.255 30.5865L179.666 21.2097L186.384 14.5719C187.591 13.3796 186.924 11.2981 185.259 11.0532L175.974 9.68048L171.824 1.14794C171.08 -0.372965 168.926 -0.392298 168.176 1.14794Z" fill="#FAB901"/>
<path id="star_2" d="M172.176 345.148L168.026 353.68L158.741 355.053C157.076 355.298 156.409 357.38 157.616 358.572L164.334 365.21L162.745 374.586C162.459 376.281 164.219 377.551 165.694 376.758L174 372.331L182.306 376.758C183.781 377.545 185.541 376.281 185.255 374.586L183.666 365.21L190.384 358.572C191.591 357.38 190.924 355.298 189.259 355.053L179.974 353.68L175.824 345.148C175.08 343.627 172.926 343.608 172.176 345.148Z" fill="#FAB901"/>
<path id="star_3" d="M23.1761 83.1479L19.0262 91.6805L9.74134 93.0532C8.07629 93.2981 7.409 95.3796 8.61648 96.5719L15.3338 103.21L13.7451 112.586C13.4591 114.281 15.2195 115.551 16.6938 114.758L25 110.331L33.3062 114.758C34.7805 115.545 36.5409 114.281 36.2549 112.586L34.6662 103.21L41.3835 96.5719C42.591 95.3796 41.9237 93.2981 40.2587 93.0532L30.9738 91.6805L26.8239 83.1479C26.0804 81.627 23.926 81.6077 23.1761 83.1479Z" fill="#FAB901"/>
<path id="star_4" d="M30.1761 275.148L26.0262 283.68L16.7413 285.053C15.0763 285.298 14.409 287.38 15.6165 288.572L22.3338 295.21L20.7451 304.586C20.4591 306.281 22.2195 307.551 23.6938 306.758L32 302.331L40.3062 306.758C41.7805 307.545 43.5409 306.281 43.2549 304.586L41.6662 295.21L48.3835 288.572C49.591 287.38 48.9237 285.298 47.2587 285.053L37.9738 283.68L33.8239 275.148C33.0804 273.627 30.926 273.608 30.1761 275.148Z" fill="#FAB901"/>
<path id="star_5" d="M315.176 83.1479L311.026 91.6805L301.741 93.0532C300.076 93.2981 299.409 95.3796 300.616 96.5719L307.334 103.21L305.745 112.586C305.459 114.281 307.219 115.551 308.694 114.758L317 110.331L325.306 114.758C326.781 115.545 328.541 114.281 328.255 112.586L326.666 103.21L333.384 96.5719C334.591 95.3796 333.924 93.2981 332.259 93.0532L322.974 91.6805L318.824 83.1479C318.08 81.627 315.926 81.6077 315.176 83.1479Z" fill="#FAB901"/>
<path id="star_6" d="M315.176 275.148L311.026 283.68L301.741 285.053C300.076 285.298 299.409 287.38 300.616 288.572L307.334 295.21L305.745 304.586C305.459 306.281 307.219 307.551 308.694 306.758L317 302.331L325.306 306.758C326.781 307.545 328.541 306.281 328.255 304.586L326.666 295.21L333.384 288.572C334.591 287.38 333.924 285.298 332.259 285.053L322.974 283.68L318.824 275.148C318.08 273.627 315.926 273.608 315.176 275.148Z" fill="#FAB901"/>
</g>
</svg>
