<svg width="60" height="61" viewBox="0 0 60 61" fill="none" xmlns="http://www.w3.org/2000/svg">
<path d="M38.3529 32.9905L28.5494 31.5179L24.1721 22.6826C23.8598 22.0535 23.378 21.524 22.7811 21.1539C22.1841 20.7838 21.4957 20.5876 20.7933 20.5876C20.0909 20.5876 19.4024 20.7838 18.8055 21.1539C18.2085 21.524 17.7268 22.0535 17.4145 22.6826L12.9968 31.5583L3.23366 32.9905C2.53594 33.0865 1.87965 33.3781 1.34065 33.8314C0.801644 34.2847 0.401929 34.8814 0.187705 35.5523C-0.0318392 36.222 -0.0593881 36.9398 0.108181 37.6243C0.27575 38.3088 0.631735 38.9327 1.13578 39.4253L8.21611 46.3846L6.56202 56.1074C6.43079 56.8046 6.49884 57.5247 6.75835 58.185C7.01786 58.8453 7.45831 59.419 8.02914 59.8403C8.59997 60.2615 9.27803 60.5133 9.98547 60.5666C10.6929 60.62 11.4011 60.4727 12.0286 60.1418L20.763 55.5628L29.558 60.1418C30.1855 60.4727 30.8936 60.62 31.6011 60.5666C32.3085 60.5133 32.9866 60.2615 33.5574 59.8403C34.1282 59.419 34.5687 58.8453 34.8282 58.185C35.0877 57.5247 35.1558 56.8046 35.0245 56.1074L33.3906 46.3846L40.4508 39.506C40.9548 39.0134 41.3108 38.3895 41.4784 37.705C41.6459 37.0204 41.6184 36.3027 41.3988 35.633C41.1976 34.947 40.8035 34.3333 40.2635 33.8649C39.7235 33.3964 39.0604 33.0929 38.3529 32.9905ZM30.5665 43.4193C30.0871 43.8811 29.7294 44.4542 29.5253 45.0878C29.3212 45.7213 29.2769 46.3955 29.3966 47.0503L30.97 56.2486L22.6995 51.9117C22.1168 51.5971 21.4656 51.4309 20.8034 51.4276C20.1003 51.4103 19.4049 51.5772 18.7862 51.9117L10.5157 56.2486L12.1093 47.0503C12.2264 46.3938 12.179 45.7186 11.9713 45.085C11.7636 44.4513 11.4021 43.879 10.9191 43.4193L4.34311 36.9038L13.602 35.5523C14.2648 35.4656 14.8956 35.2156 15.4378 34.8248C15.98 34.434 16.4167 33.9146 16.7085 33.3132L20.8437 24.9419L24.8781 33.3132C25.1699 33.9146 25.6065 34.434 26.1487 34.8248C26.691 35.2156 27.3218 35.4656 27.9846 35.5523L37.2233 36.9038L30.5665 43.4193ZM57.2539 8.38077L50.9603 7.47304L48.1564 1.78457C47.8912 1.24877 47.4816 0.797753 46.9736 0.482423C46.4657 0.167093 45.8798 0 45.2819 0C44.6841 0 44.0982 0.167093 43.5902 0.482423C43.0823 0.797753 42.6726 1.24877 42.4074 1.78457L39.6035 7.47304L33.3099 8.38077C32.7195 8.46771 32.165 8.71768 31.7088 9.10255C31.2527 9.48742 30.913 9.99193 30.7279 10.5593C30.5375 11.1276 30.5123 11.7382 30.6551 12.3202C30.798 12.9022 31.103 13.4318 31.5348 13.8473L36.0735 18.2852L35.0044 24.5586C34.9378 25.0136 34.9699 25.4776 35.0985 25.9191C35.227 26.3607 35.449 26.7694 35.7494 27.1176C36.0497 27.4658 36.4215 27.7453 36.8394 27.9372C37.2572 28.1291 37.7115 28.2289 38.1713 28.2299C38.6904 28.2269 39.2016 28.1026 39.6641 27.8668L45.2719 24.9015L50.8998 27.8668C51.4303 28.1477 52.029 28.274 52.6278 28.2314C53.2266 28.1889 53.8014 27.9791 54.2869 27.6261C54.7724 27.273 55.149 26.7908 55.374 26.2342C55.599 25.6777 55.6632 25.0692 55.5595 24.4779L54.4702 18.2246L59.0291 13.7868C59.4609 13.3713 59.7659 12.8417 59.9087 12.2597C60.0516 11.6777 60.0263 11.0671 59.8359 10.4988C59.6396 9.94388 59.2953 9.45321 58.8402 9.07988C58.3851 8.70655 57.8365 8.4648 57.2539 8.38077ZM51.4444 15.6225C51.0401 16.0041 50.7377 16.481 50.5651 17.0095C50.3924 17.5381 50.3549 18.1015 50.456 18.6483L51.2831 23.5702L46.8856 21.2504C46.3926 20.9856 45.8416 20.847 45.2819 20.847C44.7223 20.847 44.1713 20.9856 43.6783 21.2504L39.2606 23.5702L40.1078 18.6483C40.2053 18.1015 40.166 17.5392 39.9936 17.0113C39.8211 16.4834 39.5208 16.0063 39.1194 15.6225L35.549 12.0924L40.4911 11.3864C41.0408 11.3048 41.5626 11.0916 42.0121 10.765C42.4617 10.4383 42.8257 10.0079 43.0731 9.5104L45.2719 5.07258L47.4908 9.55074C47.7382 10.0483 48.1022 10.4787 48.5517 10.8053C49.0013 11.1319 49.5231 11.3451 50.0728 11.4267L55.0149 12.0924L51.4444 15.6225Z" fill="#828282"/>
</svg>
