<svg width="60" height="60" viewBox="0 0 60 60" fill="none" xmlns="http://www.w3.org/2000/svg">
<path d="M30 0.00135552C22.1187 -0.0742295 14.5305 3.01391 8.90468 8.58643C3.27884 14.1589 0.0762148 21.7594 0.00134273 29.7157C-0.0735293 37.672 2.98549 45.3325 8.50544 51.0119C14.0254 56.6913 21.5541 59.9244 29.4354 60C26.9689 59.84 25.0473 58.72 25.0473 57.3391V56.0091H23.8388C23.6722 56.0096 23.5071 55.9769 23.353 55.9127C23.1989 55.8486 23.0589 55.7543 22.9411 55.6354C22.8233 55.5164 22.7299 55.3751 22.6664 55.2196C22.6028 55.064 22.5704 54.8974 22.5709 54.7291V53.8691C16.927 52.0773 12.105 48.3047 8.97793 43.2344C5.85086 38.164 4.62532 32.131 5.52319 26.2273C6.42106 20.3237 9.38299 14.9397 13.8728 11.05C18.3626 7.1602 24.0835 5.02176 30 5.02176C35.9165 5.02176 41.6374 7.1602 46.1272 11.05C50.617 14.9397 53.5789 20.3237 54.4768 26.2273C55.3747 32.131 54.1491 38.164 51.0221 43.2344C47.895 48.3047 43.073 52.0773 37.4291 53.8691V54.7291C37.4296 54.8974 37.3972 55.064 37.3336 55.2196C37.2701 55.3751 37.1767 55.5164 37.0589 55.6354C36.9411 55.7543 36.8011 55.8486 36.647 55.9127C36.4929 55.9769 36.3278 56.0096 36.1612 56.0091H34.9527V57.3391C34.9038 57.7569 34.7434 58.1535 34.4887 58.4865C34.234 58.8195 33.8946 59.0765 33.5065 59.23C32.5874 59.6845 31.5867 59.9464 30.5646 60C38.4459 59.9244 45.9746 56.6913 51.4946 51.0119C57.0145 45.3325 60.0735 37.672 59.9987 29.7157C59.9238 21.7594 56.7212 14.1589 51.0953 8.58643C45.4695 3.01391 37.8813 -0.0742295 30 0.00135552Z" fill="#828282"/>
<path d="M41.104 41.6474C41.4331 41.7169 41.7682 41.7538 42.1044 41.7574C43.269 41.7881 44.3982 41.3517 45.2448 40.5437C46.0914 39.7357 46.5863 38.622 46.6213 37.4465C46.6126 36.3833 46.2015 35.3637 45.4723 34.5965C45.361 34.475 45.2814 34.3275 45.2406 34.1673C45.1997 34.007 45.1989 33.839 45.2381 33.6784C45.2774 33.5177 45.3555 33.3694 45.4656 33.2468C45.5756 33.1241 45.714 33.0309 45.8685 32.9756C46.7884 32.6864 47.5819 32.0868 48.1159 31.2771C48.6498 30.4675 48.8918 29.4972 48.8012 28.5288C48.7107 27.5605 48.2931 26.653 47.6184 25.9586C46.9438 25.2641 46.0531 24.825 45.0959 24.7148C44.9631 24.6898 44.8368 24.6379 44.7244 24.5623C44.612 24.4867 44.516 24.3889 44.4421 24.2748C44.3641 24.1609 44.3113 24.0314 44.2874 23.8951C44.2635 23.7587 44.2689 23.6188 44.3034 23.4848C44.3788 23.1839 44.4187 22.8751 44.4223 22.5648C44.3982 21.535 44.0157 20.5466 43.342 19.7729C42.6682 18.9993 41.7461 18.4899 40.7375 18.3339C40.5397 18.3009 40.3568 18.2075 40.2133 18.0662C40.0699 17.9249 39.9728 17.7426 39.9351 17.5439C39.6914 16.4977 39.0918 15.5709 38.2406 14.9252C37.3895 14.2795 36.3409 13.9558 35.2776 14.0105C34.2144 14.0653 33.2038 14.495 32.4222 15.2248C31.6406 15.9545 31.1374 16.9381 31.0004 18.0039H31.981C32.2438 18.0039 32.4957 18.1093 32.6815 18.2968C32.8672 18.4843 32.9716 18.7387 32.9716 19.0039V20.4739C33.5259 20.6469 34.0631 20.8715 34.5763 21.1449L35.6064 20.1009C35.792 19.9146 36.0431 19.8101 36.3048 19.8101C36.5665 19.8101 36.8175 19.9146 37.0031 20.1009L39.8063 22.9318C39.8986 23.0249 39.9715 23.1357 40.0208 23.2576C40.0702 23.3795 40.0949 23.5101 40.0936 23.6418C40.0949 23.772 40.0701 23.9011 40.0207 24.0214C39.9714 24.1417 39.8984 24.2506 39.8063 24.3418L38.7762 25.3818C39.0464 25.9003 39.2686 26.4429 39.4398 27.0027H40.8959C41.1587 27.0027 41.4106 27.1081 41.5964 27.2956C41.7821 27.4831 41.8865 27.7375 41.8865 28.0027V32.0026C41.8865 32.2678 41.7821 32.5222 41.5964 32.7097C41.4106 32.8972 41.1587 33.0026 40.8959 33.0026H39.4398C39.2686 33.5624 39.0464 34.105 38.7762 34.6235L39.8063 35.6635C39.8984 35.7547 39.9714 35.8636 40.0207 35.9839C40.0701 36.1042 40.0949 36.2333 40.0936 36.3635C40.0949 36.4952 40.0702 36.6258 40.0208 36.7477C39.9715 36.8696 39.8986 36.9804 39.8063 37.0735L37.0031 39.9044C36.8175 40.0907 36.5665 40.1952 36.3048 40.1952C36.0431 40.1952 35.792 40.0907 35.6064 39.9044L34.5763 38.8635C34.0631 39.1368 33.5259 39.3614 32.9716 39.5344V41.0044C32.9716 41.2696 32.8672 41.524 32.6815 41.7115C32.4957 41.899 32.2438 42.0044 31.981 42.0044H31.0004C31.1368 43.072 31.6407 44.0572 32.4241 44.7876C33.2074 45.5179 34.2203 45.9468 35.2854 45.9993C36.3504 46.0517 37.3998 45.7244 38.2499 45.0745C39.0999 44.4246 39.6965 43.4935 39.9351 42.4444C39.9582 42.3136 40.0069 42.1887 40.0783 42.0771C40.1498 41.9655 40.2425 41.8694 40.3511 41.7944C40.5732 41.6473 40.8436 41.5945 41.104 41.6474ZM27.0283 41.0074V39.5374C26.474 39.3644 25.9368 39.1398 25.4236 38.8665L24.3935 39.9074C24.2079 40.0937 23.9568 40.1982 23.6951 40.1982C23.4334 40.1982 23.1824 40.0937 22.9968 39.9074L20.1936 37.0765C20.1013 36.9834 20.0284 36.8726 19.9791 36.7507C19.9297 36.6288 19.905 36.4982 19.9063 36.3665C19.905 36.2363 19.9298 36.1072 19.9792 35.9869C20.0285 35.8666 20.1015 35.7577 20.1936 35.6665L21.2237 34.6265C20.9535 34.108 20.7313 33.5654 20.5601 33.0056H19.104C18.8412 33.0056 18.5893 32.9002 18.4035 32.7127C18.2178 32.5252 18.1134 32.2708 18.1134 32.0056V28.0057C18.1134 27.7405 18.2178 27.4861 18.4035 27.2986C18.5893 27.1111 18.8412 27.0057 19.104 27.0057H20.5601C20.7313 26.4459 20.9535 25.9033 21.2237 25.3848L20.1936 24.3448C20.1015 24.2536 20.0285 24.1447 19.9792 24.0244C19.9298 23.9041 19.905 23.775 19.9063 23.6448C19.905 23.5131 19.9297 23.3825 19.9791 23.2606C20.0284 23.1387 20.1013 23.0279 20.1936 22.9348L22.9968 20.1009C23.1824 19.9146 23.4334 19.8101 23.6951 19.8101C23.9568 19.8101 24.2079 19.9146 24.3935 20.1009L25.4236 21.1419C25.9369 20.8695 26.4741 20.6459 27.0283 20.4739V19.0009C27.0283 18.7357 27.1327 18.4813 27.3184 18.2938C27.5042 18.1063 27.7562 18.0009 28.0189 18.0009H28.9995C28.8625 16.9351 28.3593 15.9515 27.5777 15.2218C26.7961 14.492 25.7855 14.0623 24.7223 14.0075C23.659 13.9528 22.6104 14.2765 21.7593 14.9222C20.9081 15.5679 20.3085 16.4947 20.0648 17.5409C20.0271 17.7397 19.93 17.9219 19.7866 18.0632C19.6431 18.2045 19.4602 18.2979 19.2624 18.3309C18.2538 18.4869 17.3317 18.9963 16.6579 19.7699C15.9842 20.5436 15.6017 21.532 15.5776 22.5618C15.5812 22.8721 15.6211 23.1809 15.6965 23.4818C15.731 23.6158 15.7364 23.7557 15.7125 23.8921C15.6886 24.0284 15.6358 24.1579 15.5578 24.2718C15.4839 24.3859 15.3879 24.4837 15.2755 24.5593C15.1631 24.6349 15.0368 24.6868 14.904 24.7118C13.9468 24.822 13.0561 25.2611 12.3815 25.9556C11.7068 26.65 11.2892 27.5575 11.1987 28.5258C11.1081 29.4942 11.3501 30.4645 11.884 31.2741C12.418 32.0838 13.2115 32.6834 14.1314 32.9726C14.2859 33.0279 14.4243 33.1211 14.5344 33.2438C14.6444 33.3664 14.7225 33.5147 14.7618 33.6754C14.801 33.836 14.8002 34.004 14.7593 34.1643C14.7185 34.3245 14.6389 34.472 14.5276 34.5935C13.7984 35.3607 13.3873 36.3803 13.3786 37.4435C13.4136 38.6191 13.9085 39.7327 14.7551 40.5407C15.6017 41.3487 16.7309 41.7851 17.8955 41.7544C18.2317 41.7508 18.5668 41.7139 18.8959 41.6444C19.1567 41.5924 19.4272 41.6463 19.6488 41.7944C19.7574 41.8694 19.8501 41.9655 19.9216 42.0771C19.993 42.1887 20.0417 42.3136 20.0648 42.4444C20.3034 43.4935 20.9 44.4246 21.75 45.0745C22.6001 45.7244 23.6495 46.0517 24.7145 45.9993C25.7796 45.9468 26.7925 45.5179 27.5758 44.7876C28.3592 44.0572 28.8631 43.072 28.9995 42.0044H28.0189C27.7567 42.0044 27.5052 41.8994 27.3195 41.7126C27.1338 41.5257 27.0291 41.2721 27.0283 41.0074Z" fill="#828282"/>
<path d="M30 34.0056C32.1883 34.0056 33.9622 32.2147 33.9622 30.0056C33.9622 27.7966 32.1883 26.0057 30 26.0057C27.8118 26.0057 26.0378 27.7966 26.0378 30.0056C26.0378 32.2147 27.8118 34.0056 30 34.0056Z" fill="#828282"/>
<path d="M30 45.0374C29.3996 45.9563 28.5814 46.7094 27.6196 47.2282C26.6579 47.747 25.583 48.0152 24.4926 48.0083H35.5074C34.417 48.0152 33.3421 47.747 32.3803 47.2282C31.4186 46.7094 30.6004 45.9563 30 45.0374Z" fill="#828282"/>
<path d="M22.0756 48.0083H24.4925C23.1591 48.0214 21.8541 47.6181 20.7565 46.8536C19.6589 46.089 18.8222 45.0006 18.3611 43.7374C18.2026 43.7474 18.054 43.7574 17.8955 43.7574C16.2054 43.7885 14.5721 43.1415 13.3539 41.9584C12.1357 40.7753 11.4322 39.1527 11.3975 37.4465C11.3991 36.3347 11.7041 35.2448 12.2791 34.2966C11.2368 33.6905 10.3937 32.7887 9.85448 31.7031C9.31531 30.6175 9.10381 29.396 9.24624 28.1902C9.38866 26.9843 9.87874 25.8473 10.6556 24.9201C11.4325 23.993 12.462 23.3166 13.6164 22.9748C13.6065 22.8349 13.5966 22.7049 13.5966 22.5649C13.6129 21.1774 14.0802 19.8337 14.9267 18.7404C15.7732 17.6472 16.952 16.865 18.2818 16.514C18.7066 15.1924 19.5379 14.0422 20.6549 13.2305C21.7719 12.4189 23.1163 11.9882 24.4925 12.0011C25.5831 11.9944 26.658 12.2628 27.6197 12.7817C28.5815 13.3007 29.3996 14.0539 30 14.973C30.6003 14.0539 31.4185 13.3007 32.3802 12.7817C33.342 12.2628 34.4169 11.9944 35.5074 12.0011C36.8834 11.988 38.2276 12.4185 39.3446 13.2297C40.4615 14.041 41.293 15.1908 41.7181 16.512C43.0479 16.863 44.2267 17.6452 45.0732 18.7384C45.9198 19.8317 46.3871 21.1754 46.4034 22.5629C46.4034 22.7029 46.3935 22.8329 46.3836 22.9728C47.5395 23.3136 48.5708 23.9898 49.349 24.9175C50.1272 25.8452 50.6181 26.9834 50.7606 28.1906C50.9031 29.3977 50.6909 30.6205 50.1505 31.7068C49.61 32.7932 48.7651 33.6952 47.7208 34.3006C48.2959 35.2488 48.6009 36.3387 48.6024 37.4505C48.5678 39.1567 47.8642 40.7793 46.646 41.9624C45.4279 43.1455 43.7946 43.7925 42.1044 43.7614C41.9459 43.7614 41.7974 43.7514 41.6389 43.7414C41.1777 45.0046 40.3411 46.093 39.2434 46.8576C38.1458 47.6221 36.8409 48.0254 35.5074 48.0123H37.9243C38.187 48.0123 38.439 48.1176 38.6248 48.3052C38.8105 48.4927 38.9149 48.7471 38.9149 49.0123V51.0122C38.9138 51.0697 38.9071 51.127 38.8951 51.1832C43.7325 49.1122 47.712 45.4168 50.1597 40.723C52.6073 36.0292 53.3726 30.6256 52.3259 25.4275C51.2791 20.2293 48.4847 15.5562 44.416 12.1997C40.3473 8.84324 35.2544 7.0097 30 7.0097C24.7456 7.0097 19.6526 8.84324 15.5839 12.1997C11.5152 15.5562 8.72081 20.2293 7.67408 25.4275C6.62734 30.6256 7.39262 36.0292 9.84028 40.723C12.2879 45.4168 16.2675 49.1122 21.1049 51.1832C21.0928 51.127 21.0862 51.0697 21.0851 51.0122V49.0123C21.0845 48.8806 21.1098 48.7501 21.1593 48.6284C21.2089 48.5066 21.2818 48.3959 21.3738 48.3026C21.4658 48.2093 21.5752 48.1353 21.6956 48.0848C21.8161 48.0343 21.9452 48.0083 22.0756 48.0083Z" fill="#828282"/>
<path d="M30.9905 38.7765C30.9895 38.5488 31.0656 38.3275 31.206 38.1493C31.3465 37.9711 31.5431 37.8466 31.7632 37.7965C32.6298 37.598 33.4569 37.2531 34.2098 36.7766C34.3999 36.6559 34.6251 36.604 34.8482 36.6294C35.0714 36.6548 35.2794 36.7561 35.4381 36.9165L36.2999 37.7865L37.7064 36.3666L36.8447 35.4966C36.6857 35.3364 36.5854 35.1264 36.5602 34.9011C36.535 34.6758 36.5864 34.4485 36.706 34.2566C37.1822 33.4983 37.524 32.6622 37.7163 31.7857C37.766 31.5635 37.8892 31.3651 38.0658 31.2232C38.2423 31.0814 38.4615 31.0047 38.6871 31.0057H39.9054V29.0057H38.6871C38.4615 29.0068 38.2423 28.93 38.0658 28.7882C37.8892 28.6463 37.766 28.4479 37.7163 28.2257C37.524 27.3492 37.1822 26.5131 36.706 25.7548C36.5864 25.5629 36.535 25.3356 36.5602 25.1103C36.5854 24.885 36.6857 24.675 36.8447 24.5148L37.7064 23.6448L36.2999 22.2249L35.4381 23.0949C35.2794 23.2553 35.0714 23.3566 34.8482 23.382C34.6251 23.4074 34.3999 23.3556 34.2098 23.2349C33.4569 22.7583 32.6298 22.4134 31.7632 22.2149C31.5431 22.1648 31.3465 22.0403 31.206 21.8621C31.0656 21.6839 30.9895 21.4627 30.9905 21.2349V20.0009H29.0094V21.2319C29.0105 21.4597 28.9344 21.6809 28.7939 21.8591C28.6534 22.0373 28.4569 22.1618 28.2368 22.2119C27.3702 22.4104 26.5431 22.7553 25.7902 23.2319C25.6 23.3526 25.3749 23.4044 25.1518 23.379C24.9286 23.3536 24.7206 23.2523 24.5619 23.0919L23.7001 22.2219L22.2936 23.6418L23.1553 24.5118C23.3143 24.672 23.4146 24.882 23.4398 25.1073C23.465 25.3326 23.4136 25.5599 23.294 25.7518C22.8178 26.5101 22.4759 27.3462 22.2836 28.2227C22.234 28.4449 22.1107 28.6433 21.9342 28.7852C21.7577 28.927 21.5385 29.0038 21.3129 29.0027H20.0945V31.0027H21.3129C21.5385 31.0017 21.7577 31.0784 21.9342 31.2202C22.1107 31.3621 22.234 31.5605 22.2836 31.7827C22.4759 32.6592 22.8178 33.4953 23.294 34.2536C23.4136 34.4455 23.465 34.6728 23.4398 34.8981C23.4146 35.1234 23.3143 35.3334 23.1553 35.4936L22.2936 36.3636L23.7001 37.7835L24.5619 36.9135C24.7206 36.7531 24.9286 36.6518 25.1518 36.6264C25.3749 36.601 25.6 36.6529 25.7902 36.7736C26.5431 37.2501 27.3702 37.595 28.2368 37.7935C28.4569 37.8436 28.6534 37.9681 28.7939 38.1463C28.9344 38.3245 29.0105 38.5458 29.0094 38.7735V40.0045H30.9905V38.7765ZM24.0567 30.0057C24.0567 28.819 24.4053 27.659 25.0583 26.6724C25.7114 25.6857 26.6396 24.9167 27.7256 24.4626C28.8116 24.0084 30.0066 23.8896 31.1595 24.1211C32.3124 24.3526 33.3713 24.9241 34.2025 25.7632C35.0337 26.6023 35.5997 27.6713 35.8291 28.8352C36.0584 29.999 35.9407 31.2054 35.4909 32.3018C35.041 33.3981 34.2793 34.3351 33.3019 34.9944C32.3245 35.6537 31.1755 36.0056 30 36.0056C28.4237 36.0056 26.912 35.3734 25.7975 34.2483C24.6829 33.1231 24.0567 31.597 24.0567 30.0057ZM29.0194 18.001H28.9995C29.0094 18.101 29.0094 18.211 29.0094 18.311C29.0094 18.201 29.0094 18.101 29.0194 18.001ZM28.9995 42.0074H29.0194C29.0094 41.9074 29.0094 41.8074 29.0094 41.6974C29.0094 41.8004 29.0094 41.9074 28.9995 42.0074ZM30.9905 18.314C30.9905 18.214 30.9905 18.104 31.0004 18.004H30.9806C30.9905 18.101 30.9905 18.201 30.9905 18.314ZM30.9806 42.0074H31.0004C30.9905 41.9074 30.9905 41.7974 30.9905 41.6974C30.9905 41.8074 30.9905 41.9074 30.9806 42.0074Z" fill="#828282"/>
</svg>
