<svg width="64" height="64" viewBox="0 0 64 64" fill="none" xmlns="http://www.w3.org/2000/svg">
<path d="M32 0C14.3268 0 0 14.3269 0 32C0 49.6731 14.3268 64 32 64C49.6731 64 64 49.6731 64 32C64 14.3269 49.6731 0 32 0ZM28.6848 59.2306C22.6134 58.5035 16.9958 55.7857 12.6049 51.3949C7.42431 46.2143 4.57138 39.3265 4.57138 32C4.57138 25.4046 6.88462 19.1655 11.1254 14.2063C11.2346 15.5166 11.5043 16.9214 11.4352 17.9255C11.1829 21.5863 10.8217 23.8774 12.9645 26.9658C13.7992 28.1688 14.0043 29.8932 14.4106 31.2855C14.808 32.6477 16.3955 33.3622 17.4905 34.2014C19.6995 35.8951 21.8129 37.8637 24.1554 39.3543C25.7014 40.3382 26.6671 40.8275 26.2143 42.7142C25.8502 44.2314 25.7485 45.166 24.9635 46.5177C24.724 46.9302 25.8677 49.582 26.2483 49.9626C27.4018 51.116 28.5465 52.1742 29.8038 53.2126C31.7532 54.8232 29.6145 56.916 28.6848 59.2306ZM51.3949 51.3949C47.4514 55.3385 42.5182 57.9312 37.1555 58.9459C37.9155 57.0665 39.2688 55.3966 40.524 54.4286C41.6158 53.5862 42.9834 51.9657 43.5537 50.6822C44.1235 49.4003 44.8785 48.2891 45.6425 47.1103C46.7294 45.4335 42.9626 42.9048 41.742 42.3748C38.9952 41.1823 36.9275 39.5732 34.4865 37.8555C32.7472 36.6318 29.2162 38.4946 27.2526 37.6375C24.5632 36.4632 22.3475 34.4228 20.0098 32.6623C17.5975 30.8455 17.7142 28.7275 17.7142 26.0474C19.6037 26.1171 22.2917 25.5245 23.5462 27.044C23.942 27.5235 25.3031 29.6658 26.2142 28.9046C26.9585 28.2826 25.6626 25.7894 25.4123 25.2032C24.6423 23.4009 27.1668 22.698 28.4589 21.4758C30.1451 19.8814 33.762 17.3808 33.4762 16.2378C33.1903 15.0949 29.8571 11.8568 27.8994 12.362C27.606 12.4377 25.0229 15.1462 24.5238 15.5711C24.5371 14.6871 24.5503 13.8032 24.5638 12.9192C24.5723 12.3611 23.5226 11.7882 23.5714 11.4282C23.6945 10.5183 26.2271 8.86708 26.8571 8.14246C26.4157 7.86662 24.9095 6.57292 24.4537 6.76277C23.35 7.22277 22.1035 7.53969 20.9998 7.99954C20.9998 7.61677 20.9534 7.25723 20.898 6.90215C23.1206 5.91892 25.4651 5.23839 27.8688 4.87877L30.0355 5.74954L31.5654 7.56508L33.0922 9.13938L34.4268 9.56938L36.5466 7.57015L36 6.14292V4.86C40.1923 5.46892 44.1514 7.03292 47.6188 9.44462C46.9985 9.50015 46.3168 9.59139 45.5477 9.68923C45.23 9.50154 44.8225 9.41631 44.4762 9.28569C45.4809 11.446 46.5289 13.5765 47.5937 15.7082C48.7311 17.9852 51.2542 20.4277 51.6972 22.8314C52.2194 25.6646 51.8571 28.2382 52.1428 31.5715C52.4179 34.7815 55.7618 38.4288 55.7618 38.4288C55.7618 38.4288 57.306 38.9548 58.5902 38.7715C57.3931 43.5074 54.9389 47.8506 51.3949 51.3949Z" fill="#CEA556"/>
</svg>
