<svg width="64" height="65" viewBox="0 0 64 65" fill="none" xmlns="http://www.w3.org/2000/svg">
<path d="M19.6884 57.1339C19.8859 57.2441 20.1182 57.2743 20.3374 57.2183C20.5565 57.1623 20.7459 57.0244 20.8664 56.833L22.2458 54.5476C22.3019 54.4539 22.3383 54.3498 22.3528 54.2415C22.3673 54.1333 22.3596 54.0233 22.3301 53.9181C22.3007 53.813 22.2501 53.7149 22.1814 53.63C22.1128 53.5451 22.0275 53.475 21.9309 53.4242L21.4329 53.1489C21.2882 53.0752 21.1696 52.9589 21.093 52.8156C21.0164 52.6724 20.9855 52.5092 21.0046 52.3479C21.0945 51.7235 21.0945 51.0895 21.0046 50.4651C20.9855 50.3038 21.0164 50.1406 21.093 49.9973C21.1696 49.8541 21.2882 49.7378 21.4329 49.6641L21.9309 49.3888C22.0275 49.3379 22.1128 49.2679 22.1814 49.183C22.2501 49.098 22.3007 49 22.3301 48.8949C22.3596 48.7897 22.3673 48.6797 22.3528 48.5714C22.3383 48.4632 22.3019 48.3591 22.2458 48.2654L20.86 45.98C20.7395 45.7885 20.5501 45.6506 20.3309 45.5946C20.1118 45.5387 19.8795 45.5689 19.6819 45.679L19.1775 45.9575C19.0236 46.0391 18.8495 46.0748 18.6758 46.0606C18.5022 46.0464 18.3362 45.9827 18.1976 45.8772C17.7015 45.5132 17.1619 45.2128 16.5912 44.9829C16.4309 44.926 16.2916 44.8221 16.1915 44.6847C16.0914 44.5473 16.0351 44.3829 16.03 44.2129V43.6614C16.0249 43.4389 15.9319 43.2274 15.7714 43.0733C15.6108 42.9191 15.3958 42.8349 15.1732 42.8389H12.4112C12.1887 42.8349 11.9736 42.9191 11.8131 43.0733C11.6525 43.2274 11.5595 43.4389 11.5545 43.6614V44.2129C11.5494 44.3829 11.4931 44.5473 11.393 44.6847C11.2928 44.8221 11.1535 44.926 10.9933 44.9829C10.4226 45.2128 9.88295 45.5132 9.38688 45.8772C9.24826 45.9827 9.08231 46.0464 8.90867 46.0606C8.73502 46.0748 8.56092 46.0391 8.40696 45.9575L7.90254 45.679C7.70498 45.5689 7.47269 45.5387 7.25352 45.5946C7.03436 45.6506 6.84501 45.7885 6.7245 45.98L5.33976 48.2654C5.28357 48.3589 5.24703 48.463 5.23238 48.5711C5.21772 48.6792 5.22526 48.7892 5.25452 48.8944C5.28379 48.9995 5.33417 49.0975 5.40259 49.1826C5.47101 49.2676 5.55603 49.3378 5.65248 49.3888L6.15047 49.6641C6.29518 49.7378 6.41382 49.8541 6.49041 49.9973C6.56701 50.1406 6.59787 50.3038 6.57885 50.4651C6.4889 51.0895 6.4889 51.7235 6.57885 52.3479C6.59787 52.5092 6.56701 52.6724 6.49041 52.8156C6.41382 52.9589 6.29518 53.0752 6.15047 53.1489L5.65248 53.4242C5.55585 53.475 5.47062 53.5451 5.40198 53.63C5.33335 53.7149 5.28275 53.813 5.25328 53.9181C5.22381 54.0233 5.21609 54.1333 5.23059 54.2415C5.24509 54.3498 5.28151 54.4539 5.33762 54.5476L6.72343 56.833C6.84394 57.0244 7.03329 57.1623 7.25245 57.2183C7.47162 57.2743 7.70391 57.2441 7.90147 57.1339L8.40589 56.8555C8.55985 56.7739 8.73394 56.7381 8.90759 56.7524C9.08124 56.7666 9.24719 56.8303 9.38581 56.9358C9.88187 57.2997 10.4215 57.6002 10.9922 57.83C11.1525 57.8869 11.2918 57.9909 11.3919 58.1283C11.492 58.2657 11.5483 58.4301 11.5534 58.6001V59.1516C11.5585 59.3741 11.6515 59.5856 11.812 59.7397C11.9726 59.8938 12.1876 59.9781 12.4102 59.9741H15.1711C15.3936 59.9781 15.6087 59.8938 15.7692 59.7397C15.9298 59.5856 16.0228 59.3741 16.0278 59.1516V58.6001C16.0337 58.43 16.0908 58.2656 16.1917 58.1286C16.2926 57.9916 16.4326 57.8882 16.5933 57.8322C17.164 57.6023 17.7037 57.3019 18.1997 56.9379C18.3384 56.8324 18.5043 56.7687 18.6779 56.7545C18.8516 56.7403 19.0257 56.7761 19.1797 56.8576L19.6884 57.1339ZM13.7917 55.1548C13.0504 55.1548 12.3257 54.935 11.7092 54.5231C11.0928 54.1112 10.6124 53.5258 10.3287 52.8409C10.045 52.156 9.97077 51.4023 10.1154 50.6752C10.26 49.9481 10.617 49.2802 11.1412 48.756C11.6654 48.2318 12.3333 47.8748 13.0604 47.7302C13.7875 47.5856 14.5412 47.6598 15.2261 47.9435C15.911 48.2272 16.4964 48.7076 16.9083 49.324C17.3202 49.9404 17.54 50.6651 17.54 51.4065C17.54 52.4006 17.1451 53.354 16.4422 54.057C15.7392 54.7599 14.7858 55.1548 13.7917 55.1548Z" fill="#CEA556"/>
<path d="M25.2873 38.5553H21.0902V40.6972H25.2873V38.5553Z" fill="#CEA556"/>
<path d="M50.4728 38.5553H46.2758V40.6972H50.4728V38.5553Z" fill="#CEA556"/>
<path d="M42.8798 62.1163H38.6827V64.2582H42.8798V62.1163Z" fill="#CEA556"/>
<path d="M59.7151 61.0977L58.3068 59.4838C57.347 60.3223 56.2447 60.9821 55.0522 61.4318L55.8019 63.4356C57.2357 62.8969 58.5612 62.105 59.7151 61.0977Z" fill="#CEA556"/>
<path d="M47.0779 64.2582H51.3242L51.275 62.1163H47.0779V64.2582Z" fill="#CEA556"/>
<path d="M54.3197 41.1362C55.5414 41.4963 56.6884 42.0731 57.706 42.839L58.9912 41.1255C57.769 40.203 56.3903 39.5086 54.9216 39.0757L54.3197 41.1362Z" fill="#CEA556"/>
<path d="M42.0776 38.5553H37.8806V40.6972H42.0776V38.5553Z" fill="#CEA556"/>
<path d="M4.30201 41.6974L5.70495 43.3145C6.66706 42.4782 7.77114 41.821 8.96493 41.3739L8.21526 39.368C6.78198 39.9041 5.45654 40.693 4.30201 41.6974Z" fill="#CEA556"/>
<path d="M16.8932 40.6972V38.5553H12.6961L12.7207 40.6972H16.8932Z" fill="#CEA556"/>
<path d="M34.4846 62.1163H30.2876V64.2582H34.4846V62.1163Z" fill="#CEA556"/>
<path d="M26.0894 62.1163H21.8924V64.2582H26.0894V62.1163Z" fill="#CEA556"/>
<path d="M9.65676 61.6706C8.43497 61.3072 7.28861 60.7267 6.27256 59.957L4.97992 61.6652C6.20009 62.5889 7.57637 63.2858 9.04311 63.7225L9.65676 61.6706Z" fill="#CEA556"/>
<path d="M17.6964 62.1163H13.4983V64.2582H17.6964V62.1163Z" fill="#CEA556"/>
<path d="M33.6825 38.5553H29.4854V40.6972H33.6825V38.5553Z" fill="#CEA556"/>
<path d="M62.5671 57.5485C63.3005 56.2059 63.7859 54.7421 64 53.2272L61.8784 52.9273C61.7006 54.189 61.2969 55.4084 60.6865 56.5268L62.5671 57.5485ZM0 49.5624L2.12155 49.8676C2.30074 48.6046 2.70711 47.3843 3.32102 46.266L1.44257 45.2369C0.705414 46.5802 0.216726 48.0455 0 49.5624ZM60.2913 45.6235C60.9811 46.6949 61.4719 47.8819 61.7403 49.1276L63.8351 48.6746C63.5116 47.1786 62.9209 45.7532 62.0916 44.4668L60.2913 45.6235ZM0.155288 54.1108C0.473799 55.6084 1.06126 57.0359 1.88916 58.3239L3.69157 57.1694C3.00394 56.0968 2.51527 54.909 2.249 53.6631L0.155288 54.1108ZM58.7716 51.4066C58.7716 49.7121 58.2691 48.0556 57.3277 46.6467C56.3863 45.2378 55.0482 44.1396 53.4827 43.4912C51.9172 42.8427 50.1945 42.673 48.5326 43.0036C46.8706 43.3342 45.344 44.1502 44.1458 45.3484C42.9476 46.5466 42.1316 48.0732 41.801 49.7351C41.4705 51.3971 41.6401 53.1198 42.2886 54.6853C42.937 56.2508 44.0352 57.5889 45.4441 58.5303C46.853 59.4717 48.5095 59.9742 50.204 59.9742C52.4763 59.9742 54.6555 59.0715 56.2622 57.4648C57.869 55.8581 58.7716 53.6789 58.7716 51.4066Z" fill="#CEA556"/>
<path d="M28.785 2.14307H18.0755V4.28497H28.785V2.14307Z" fill="#CEA556"/>
<path d="M19.1465 10.7107H8.43696V12.8526H19.1465V10.7107Z" fill="#CEA556"/>
<path d="M21.2884 19.2782H15.9336V21.4201H21.2884V19.2782Z" fill="#CEA556"/>
<path d="M19.1465 25.704H10.5789V27.8459H19.1465V25.704Z" fill="#CEA556"/>
<path d="M44.0279 4.24953C44.0281 3.40918 43.7791 2.58763 43.3123 1.88881C42.8456 1.18999 42.1821 0.64529 41.4057 0.323602C40.6294 0.00191287 39.775 -0.0823109 38.9508 0.0815827C38.1266 0.245476 37.3695 0.650125 36.7753 1.24435C36.1811 1.83857 35.7764 2.59567 35.6125 3.41989C35.4486 4.24411 35.5328 5.09842 35.8545 5.87477C36.1762 6.65112 36.7209 7.31463 37.4197 7.78137C38.1186 8.24812 38.9401 8.49714 39.7805 8.49692C40.9069 8.49664 41.987 8.04906 42.7835 7.25258C43.58 6.4561 44.0276 5.37592 44.0279 4.24953Z" fill="#CEA556"/>
<path d="M28.2677 7.28369C28.0744 7.28376 27.8838 7.32994 27.7119 7.41842C27.54 7.50689 27.3917 7.6351 27.2793 7.79239L21.5743 15.7795H25.2155L28.8568 12.1383H33.7114L27.6423 27.9177L21.5743 29.1311L19.1465 32.7723H30.4621C30.7046 32.7723 30.9415 32.6997 31.1424 32.5638C31.3432 32.4279 31.4987 32.2349 31.5888 32.0098L33.7114 26.7032L40.9938 29.1311L44.6351 36.4135H48.2763L44.8129 26.0253C44.7572 25.8579 44.6657 25.7047 44.5447 25.5764C44.4238 25.448 44.2762 25.3476 44.1125 25.2821L38.566 23.0631L42.2072 14.5672L47.7697 16.7927C47.929 16.8562 48.0998 16.8854 48.2711 16.8782C48.4424 16.871 48.6103 16.8276 48.7636 16.7509L55.5588 12.1383V8.49708L48.2763 12.1383L46.2544 11.1273C41.1983 8.59975 35.6232 7.28381 29.9706 7.28369H28.2677Z" fill="#CEA556"/>
</svg>
