<svg width="405" height="286" viewBox="0 0 405 286" fill="none" xmlns="http://www.w3.org/2000/svg">
<path d="M10.5 167H8.89062L3.125 158.07C2.97917 157.846 2.85938 157.612 2.76562 157.367H2.71875C2.76042 157.607 2.78125 158.12 2.78125 158.906V167H1.46875V155.797H3.17188L8.78125 164.586C9.01562 164.951 9.16667 165.201 9.23438 165.336H9.26562C9.21354 165.013 9.1875 164.464 9.1875 163.688V155.797H10.5V167ZM20.3353 163.32H14.6869C14.7077 164.211 14.9473 164.898 15.4056 165.383C15.864 165.867 16.4942 166.109 17.2963 166.109C18.1973 166.109 19.0254 165.812 19.7806 165.219V166.422C19.0775 166.932 18.1478 167.188 16.9916 167.188C15.8614 167.188 14.9733 166.826 14.3275 166.102C13.6817 165.372 13.3588 164.349 13.3588 163.031C13.3588 161.786 13.7103 160.773 14.4134 159.992C15.1218 159.206 15.9994 158.812 17.0463 158.812C18.0931 158.812 18.903 159.151 19.4759 159.828C20.0489 160.505 20.3353 161.445 20.3353 162.648V163.32ZM19.0228 162.234C19.0176 161.495 18.8379 160.919 18.4838 160.508C18.1348 160.096 17.6478 159.891 17.0228 159.891C16.4186 159.891 15.9056 160.107 15.4838 160.539C15.0619 160.971 14.8015 161.536 14.7025 162.234H19.0228ZM26.6316 166.922C26.3295 167.089 25.931 167.172 25.4363 167.172C24.0352 167.172 23.3347 166.391 23.3347 164.828V160.094H21.9597V159H23.3347V157.047L24.6159 156.633V159H26.6316V160.094H24.6159V164.602C24.6159 165.138 24.7071 165.521 24.8894 165.75C25.0717 165.979 25.3738 166.094 25.7956 166.094C26.1185 166.094 26.3972 166.005 26.6316 165.828V166.922ZM39.0606 159L36.6622 167H35.3341L33.6856 161.273C33.6231 161.055 33.5815 160.807 33.5606 160.531H33.5294C33.5138 160.719 33.4591 160.961 33.3653 161.258L31.5763 167H30.295L27.8731 159H29.2169L30.8731 165.016C30.9252 165.198 30.9617 165.438 30.9825 165.734H31.045C31.0606 165.505 31.1075 165.26 31.1856 165L33.0294 159H34.2013L35.8575 165.031C35.9096 165.224 35.9486 165.464 35.9747 165.75H36.0372C36.0476 165.547 36.0919 165.307 36.17 165.031L37.795 159H39.0606ZM44.5288 167.188C43.3465 167.188 42.4011 166.815 41.6928 166.07C40.9897 165.32 40.6381 164.328 40.6381 163.094C40.6381 161.75 41.0053 160.701 41.7397 159.945C42.4741 159.19 43.4663 158.812 44.7163 158.812C45.909 158.812 46.8386 159.18 47.5053 159.914C48.1772 160.648 48.5131 161.667 48.5131 162.969C48.5131 164.245 48.1511 165.268 47.4272 166.039C46.7084 166.805 45.7423 167.188 44.5288 167.188ZM44.6225 159.891C43.7996 159.891 43.1485 160.172 42.6694 160.734C42.1902 161.292 41.9506 162.062 41.9506 163.047C41.9506 163.995 42.1928 164.742 42.6772 165.289C43.1616 165.836 43.81 166.109 44.6225 166.109C45.4506 166.109 46.086 165.841 46.5288 165.305C46.9767 164.768 47.2006 164.005 47.2006 163.016C47.2006 162.016 46.9767 161.245 46.5288 160.703C46.086 160.161 45.4506 159.891 44.6225 159.891ZM55.3719 160.297C55.1479 160.125 54.825 160.039 54.4031 160.039C53.8563 160.039 53.3979 160.297 53.0281 160.812C52.6635 161.328 52.4813 162.031 52.4813 162.922V167H51.2V159H52.4813V160.648H52.5125C52.6948 160.086 52.9734 159.648 53.3484 159.336C53.7234 159.018 54.1427 158.859 54.6063 158.859C54.9396 158.859 55.1948 158.896 55.3719 158.969V160.297ZM64.0431 167H62.2463L58.715 163.156H58.6838V167H57.4025V155.156H58.6838V162.664H58.715L62.0744 159H63.7541L60.0431 162.859L64.0431 167Z" fill="#333333"/>
<path d="M17.5884 95.9402C18.2405 95.9402 18.8731 96.0348 19.4665 96.2207C21.7169 93.699 24.2104 91.4053 26.9107 89.3728C26.6332 88.2117 26.6874 86.996 27.0672 85.8641C24.0214 83.6812 20.7253 81.8705 17.2493 80.4707C13.9728 82.4973 11.1149 85.1328 8.83014 88.2348C10.5224 91.2348 12.5343 94.0294 14.8233 96.5728C15.658 96.1685 16.5939 95.9402 17.5884 95.9402ZM11.2039 102.322C11.2039 101.425 11.3931 100.571 11.7224 99.8011C9.67005 97.5454 7.82059 95.1132 6.1955 92.5326C4.0907 96.7108 2.99618 101.325 3.00002 106.003C2.9944 111.405 4.45372 116.707 7.22262 121.346C8.16969 116.041 9.95265 110.921 12.5049 106.176C11.6603 105.069 11.2031 103.714 11.2039 102.322ZM33.1158 81.5076C34.8016 81.5076 36.3276 82.1631 37.4721 83.2326C40.8395 81.779 44.3543 80.6945 47.9552 79.9978C43.408 77.3729 38.2489 75.9939 32.9984 76C29.3944 75.9978 25.8197 76.6474 22.4468 77.9174C25.0436 79.2001 27.5273 80.7 29.8714 82.4011C30.8235 81.8337 31.9289 81.5076 33.1158 81.5076ZM42.6566 111.57C43.049 110.745 43.6152 110.015 44.3163 109.43C42.4494 103.697 39.4908 98.3783 35.6037 93.7685C34.5981 94.1941 33.5 94.3543 32.4146 94.2338C31.3293 94.1134 30.293 93.7162 29.4051 93.0804C27.0926 94.8371 24.9486 96.8054 23.0011 98.9598C23.4915 99.7362 23.806 100.611 23.9226 101.521C24.0392 102.432 23.9551 103.358 23.6761 104.233C29.3832 108.051 35.8655 110.556 42.6566 111.57ZM50.9355 120.188C51.1738 123.539 51.0854 126.905 50.6714 130.238C55.8216 126.481 59.6436 121.183 61.585 115.111C59.246 115.678 56.8694 116.075 54.4734 116.301C54.1933 117.163 53.733 117.955 53.123 118.626C52.513 119.296 51.7673 119.828 50.9355 120.188ZM41.1632 115.861C33.9086 114.652 27.0011 111.889 20.9143 107.761C19.5278 108.614 17.8675 108.903 16.2743 108.57C13.3446 114.116 11.5709 120.2 11.0605 126.452C13.935 129.544 17.4294 131.994 21.3154 133.642C26.2412 126.063 33.0903 119.927 41.1632 115.861ZM53.1365 83.7641C48.4288 84.2246 43.8187 85.3989 39.4644 87.2468C39.5836 88.4303 39.3678 89.6235 38.8416 90.6902C43.161 95.7562 46.4496 101.617 48.5226 107.943C49.7583 107.966 50.961 108.346 51.9853 109.037C53.0096 109.729 53.8115 110.702 54.294 111.84C57.183 111.547 59.9937 110.992 62.7001 110.197C63.3922 105.345 62.882 100.397 61.2145 95.7877C59.5469 91.1788 56.773 87.05 53.1365 83.7641ZM44.375 119.268C36.855 122.79 30.4125 128.257 25.714 135.103C28.0962 135.7 30.5427 136.001 32.9984 136C37.3719 136.004 41.6929 135.048 45.6565 133.199C46.276 130.173 46.6021 127.046 46.6021 123.843C46.6021 122.686 46.5499 121.538 46.4618 120.403C45.7003 120.161 44.992 119.776 44.375 119.268Z" fill="#828282"/>
<path d="M171.259 256.234C170.134 256.87 168.884 257.188 167.509 257.188C165.91 257.188 164.616 256.672 163.627 255.641C162.642 254.609 162.15 253.245 162.15 251.547C162.15 249.812 162.697 248.391 163.791 247.281C164.89 246.167 166.28 245.609 167.962 245.609C169.181 245.609 170.205 245.807 171.033 246.203V247.656C170.127 247.083 169.054 246.797 167.814 246.797C166.559 246.797 165.53 247.229 164.728 248.094C163.926 248.958 163.525 250.078 163.525 251.453C163.525 252.87 163.897 253.984 164.642 254.797C165.387 255.604 166.397 256.008 167.673 256.008C168.548 256.008 169.306 255.833 169.947 255.484V252.344H167.494V251.156H171.259V256.234ZM178.509 250.297C178.285 250.125 177.962 250.039 177.54 250.039C176.993 250.039 176.535 250.297 176.165 250.812C175.8 251.328 175.618 252.031 175.618 252.922V257H174.337V249H175.618V250.648H175.649C175.832 250.086 176.11 249.648 176.485 249.336C176.86 249.018 177.28 248.859 177.743 248.859C178.076 248.859 178.332 248.896 178.509 248.969V250.297ZM183.883 257.188C182.701 257.188 181.756 256.815 181.047 256.07C180.344 255.32 179.993 254.328 179.993 253.094C179.993 251.75 180.36 250.701 181.094 249.945C181.828 249.19 182.821 248.812 184.071 248.812C185.263 248.812 186.193 249.18 186.86 249.914C187.532 250.648 187.868 251.667 187.868 252.969C187.868 254.245 187.506 255.268 186.782 256.039C186.063 256.805 185.097 257.188 183.883 257.188ZM183.977 249.891C183.154 249.891 182.503 250.172 182.024 250.734C181.545 251.292 181.305 252.062 181.305 253.047C181.305 253.995 181.547 254.742 182.032 255.289C182.516 255.836 183.164 256.109 183.977 256.109C184.805 256.109 185.44 255.841 185.883 255.305C186.331 254.768 186.555 254.005 186.555 253.016C186.555 252.016 186.331 251.245 185.883 250.703C185.44 250.161 184.805 249.891 183.977 249.891ZM200.632 249L198.234 257H196.906L195.257 251.273C195.195 251.055 195.153 250.807 195.132 250.531H195.101C195.086 250.719 195.031 250.961 194.937 251.258L193.148 257H191.867L189.445 249H190.789L192.445 255.016C192.497 255.198 192.534 255.438 192.554 255.734H192.617C192.632 255.505 192.679 255.26 192.757 255L194.601 249H195.773L197.429 255.031C197.481 255.224 197.521 255.464 197.547 255.75H197.609C197.619 255.547 197.664 255.307 197.742 255.031L199.367 249H200.632ZM206.468 256.922C206.166 257.089 205.767 257.172 205.272 257.172C203.871 257.172 203.171 256.391 203.171 254.828V250.094H201.796V249H203.171V247.047L204.452 246.633V249H206.468V250.094H204.452V254.602C204.452 255.138 204.543 255.521 204.726 255.75C204.908 255.979 205.21 256.094 205.632 256.094C205.955 256.094 206.233 256.005 206.468 255.828V256.922ZM215.459 257H214.178V252.391C214.178 250.724 213.558 249.891 212.319 249.891C211.694 249.891 211.168 250.133 210.741 250.617C210.314 251.096 210.1 251.714 210.1 252.469V257H208.819V245.156H210.1V250.328H210.131C210.746 249.318 211.621 248.812 212.756 248.812C214.558 248.812 215.459 249.898 215.459 252.07V257ZM171.307 281H170.002V273.484C170.002 272.891 170.038 272.164 170.111 271.305H170.08C169.955 271.81 169.843 272.172 169.744 272.391L165.916 281H165.275L161.455 272.453C161.346 272.203 161.234 271.82 161.119 271.305H161.088C161.129 271.753 161.15 272.484 161.15 273.5V281H159.885V269.797H161.619L165.057 277.609C165.322 278.208 165.494 278.656 165.572 278.953H165.619C165.843 278.339 166.023 277.88 166.158 277.578L169.666 269.797H171.307V281ZM175.384 270.969C175.155 270.969 174.96 270.891 174.798 270.734C174.637 270.578 174.556 270.38 174.556 270.141C174.556 269.901 174.637 269.703 174.798 269.547C174.96 269.385 175.155 269.305 175.384 269.305C175.618 269.305 175.816 269.385 175.978 269.547C176.144 269.703 176.228 269.901 176.228 270.141C176.228 270.37 176.144 270.565 175.978 270.727C175.816 270.888 175.618 270.969 175.384 270.969ZM176.009 281H174.728V273H176.009V281ZM185.883 281H184.602V276.438C184.602 274.74 183.982 273.891 182.743 273.891C182.102 273.891 181.571 274.133 181.149 274.617C180.732 275.096 180.524 275.703 180.524 276.438V281H179.243V273H180.524V274.328H180.555C181.159 273.318 182.034 272.812 183.18 272.812C184.055 272.812 184.725 273.096 185.188 273.664C185.652 274.227 185.883 275.042 185.883 276.109V281ZM195.773 281H194.492V279.641H194.461C193.867 280.672 192.951 281.188 191.711 281.188C190.706 281.188 189.901 280.831 189.297 280.117C188.698 279.398 188.398 278.422 188.398 277.188C188.398 275.865 188.732 274.805 189.398 274.008C190.065 273.211 190.953 272.812 192.062 272.812C193.161 272.812 193.961 273.245 194.461 274.109H194.492V269.156H195.773V281ZM194.492 277.383V276.203C194.492 275.557 194.279 275.01 193.852 274.562C193.424 274.115 192.883 273.891 192.227 273.891C191.445 273.891 190.831 274.177 190.383 274.75C189.935 275.323 189.711 276.115 189.711 277.125C189.711 278.047 189.924 278.776 190.352 279.312C190.784 279.844 191.362 280.109 192.086 280.109C192.799 280.109 193.378 279.852 193.82 279.336C194.268 278.82 194.492 278.169 194.492 277.383ZM198.523 280.711V279.336C199.221 279.852 199.989 280.109 200.827 280.109C201.952 280.109 202.515 279.734 202.515 278.984C202.515 278.771 202.466 278.591 202.367 278.445C202.273 278.294 202.143 278.161 201.976 278.047C201.814 277.932 201.622 277.831 201.398 277.742C201.179 277.648 200.942 277.552 200.687 277.453C200.333 277.312 200.02 277.172 199.749 277.031C199.484 276.885 199.26 276.724 199.077 276.547C198.9 276.365 198.765 276.159 198.671 275.93C198.583 275.701 198.538 275.432 198.538 275.125C198.538 274.75 198.624 274.419 198.796 274.133C198.968 273.841 199.197 273.599 199.484 273.406C199.77 273.208 200.096 273.06 200.46 272.961C200.83 272.862 201.21 272.812 201.601 272.812C202.294 272.812 202.913 272.932 203.46 273.172V274.469C202.872 274.083 202.195 273.891 201.429 273.891C201.189 273.891 200.973 273.919 200.781 273.977C200.588 274.029 200.421 274.104 200.281 274.203C200.145 274.302 200.038 274.422 199.96 274.562C199.887 274.698 199.851 274.849 199.851 275.016C199.851 275.224 199.887 275.398 199.96 275.539C200.038 275.68 200.15 275.805 200.296 275.914C200.442 276.023 200.619 276.122 200.827 276.211C201.036 276.299 201.273 276.396 201.538 276.5C201.893 276.635 202.21 276.776 202.492 276.922C202.773 277.062 203.012 277.224 203.21 277.406C203.408 277.583 203.559 277.789 203.663 278.023C203.773 278.258 203.827 278.536 203.827 278.859C203.827 279.255 203.739 279.599 203.562 279.891C203.39 280.182 203.158 280.424 202.867 280.617C202.575 280.81 202.239 280.953 201.859 281.047C201.479 281.141 201.08 281.188 200.663 281.188C199.841 281.188 199.127 281.029 198.523 280.711ZM212.874 277.32H207.225C207.246 278.211 207.486 278.898 207.944 279.383C208.402 279.867 209.033 280.109 209.835 280.109C210.736 280.109 211.564 279.812 212.319 279.219V280.422C211.616 280.932 210.686 281.188 209.53 281.188C208.4 281.188 207.512 280.826 206.866 280.102C206.22 279.372 205.897 278.349 205.897 277.031C205.897 275.786 206.249 274.773 206.952 273.992C207.66 273.206 208.538 272.812 209.585 272.812C210.632 272.812 211.441 273.151 212.014 273.828C212.587 274.505 212.874 275.445 212.874 276.648V277.32ZM211.561 276.234C211.556 275.495 211.376 274.919 211.022 274.508C210.673 274.096 210.186 273.891 209.561 273.891C208.957 273.891 208.444 274.107 208.022 274.539C207.6 274.971 207.34 275.536 207.241 276.234H211.561ZM219.17 280.922C218.868 281.089 218.469 281.172 217.975 281.172C216.574 281.172 215.873 280.391 215.873 278.828V274.094H214.498V273H215.873V271.047L217.154 270.633V273H219.17V274.094H217.154V278.602C217.154 279.138 217.246 279.521 217.428 279.75C217.61 279.979 217.912 280.094 218.334 280.094C218.657 280.094 218.936 280.005 219.17 279.828V280.922Z" fill="#333333"/>
<path d="M189 166.001C181.119 165.926 173.531 169.014 167.905 174.586C162.279 180.159 159.076 187.759 159.001 195.716C158.926 203.672 161.985 211.332 167.505 217.012C173.025 222.691 180.554 225.924 188.435 226C185.969 225.84 184.047 224.72 184.047 223.339V222.009H182.839C182.672 222.01 182.507 221.977 182.353 221.913C182.199 221.849 182.059 221.754 181.941 221.635C181.823 221.516 181.73 221.375 181.666 221.22C181.603 221.064 181.57 220.897 181.571 220.729V219.869C175.927 218.077 171.105 214.305 167.978 209.234C164.851 204.164 163.625 198.131 164.523 192.227C165.421 186.324 168.383 180.94 172.873 177.05C177.363 173.16 183.084 171.022 189 171.022C194.916 171.022 200.637 173.16 205.127 177.05C209.617 180.94 212.579 186.324 213.477 192.227C214.375 198.131 213.149 204.164 210.022 209.234C206.895 214.305 202.073 218.077 196.429 219.869V220.729C196.43 220.897 196.397 221.064 196.334 221.22C196.27 221.375 196.177 221.516 196.059 221.635C195.941 221.754 195.801 221.849 195.647 221.913C195.493 221.977 195.328 222.01 195.161 222.009H193.953V223.339C193.904 223.757 193.743 224.153 193.489 224.486C193.234 224.82 192.895 225.077 192.507 225.23C191.587 225.685 190.587 225.946 189.565 226C197.446 225.924 204.975 222.691 210.495 217.012C216.015 211.332 219.074 203.672 218.999 195.716C218.924 187.759 215.721 180.159 210.095 174.586C204.469 169.014 196.881 165.926 189 166.001Z" fill="#828282"/>
<path d="M200.104 207.647C200.433 207.717 200.768 207.754 201.104 207.757C202.269 207.788 203.398 207.352 204.245 206.544C205.091 205.736 205.586 204.622 205.621 203.446C205.613 202.383 205.201 201.364 204.472 200.597C204.361 200.475 204.281 200.328 204.241 200.167C204.2 200.007 204.199 199.839 204.238 199.678C204.277 199.518 204.356 199.369 204.466 199.247C204.576 199.124 204.714 199.031 204.868 198.976C205.788 198.686 206.582 198.087 207.116 197.277C207.65 196.468 207.892 195.497 207.801 194.529C207.711 193.56 207.293 192.653 206.618 191.959C205.944 191.264 205.053 190.825 204.096 190.715C203.963 190.69 203.837 190.638 203.724 190.562C203.612 190.487 203.516 190.389 203.442 190.275C203.364 190.161 203.311 190.031 203.287 189.895C203.263 189.759 203.269 189.619 203.303 189.485C203.379 189.184 203.419 188.875 203.422 188.565C203.398 187.535 203.016 186.547 202.342 185.773C201.668 184.999 200.746 184.49 199.737 184.334C199.54 184.301 199.357 184.207 199.213 184.066C199.07 183.925 198.973 183.743 198.935 183.544C198.691 182.498 198.092 181.571 197.241 180.925C196.39 180.279 195.341 179.956 194.278 180.011C193.214 180.065 192.204 180.495 191.422 181.225C190.641 181.955 190.137 182.938 190 184.004H190.981C191.244 184.004 191.496 184.109 191.681 184.297C191.867 184.484 191.972 184.739 191.972 185.004V186.474C192.526 186.647 193.063 186.871 193.576 187.145L194.606 186.101C194.792 185.915 195.043 185.81 195.305 185.81C195.566 185.81 195.818 185.915 196.003 186.101L198.806 188.932C198.899 189.025 198.972 189.136 199.021 189.258C199.07 189.379 199.095 189.51 199.094 189.642C199.095 189.772 199.07 189.901 199.021 190.021C198.971 190.142 198.898 190.251 198.806 190.342L197.776 191.382C198.046 191.9 198.269 192.443 198.44 193.003H199.896C200.159 193.003 200.411 193.108 200.596 193.296C200.782 193.483 200.886 193.737 200.886 194.003V198.003C200.886 198.268 200.782 198.522 200.596 198.71C200.411 198.897 200.159 199.003 199.896 199.003H198.44C198.269 199.562 198.046 200.105 197.776 200.624L198.806 201.664C198.898 201.755 198.971 201.864 199.021 201.984C199.07 202.104 199.095 202.233 199.094 202.364C199.095 202.495 199.07 202.626 199.021 202.748C198.972 202.87 198.899 202.98 198.806 203.073L196.003 205.904C195.818 206.091 195.566 206.195 195.305 206.195C195.043 206.195 194.792 206.091 194.606 205.904L193.576 204.863C193.063 205.137 192.526 205.361 191.972 205.534V207.004C191.972 207.27 191.867 207.524 191.681 207.711C191.496 207.899 191.244 208.004 190.981 208.004H190C190.137 209.072 190.641 210.057 191.424 210.788C192.207 211.518 193.22 211.947 194.285 211.999C195.35 212.052 196.4 211.724 197.25 211.074C198.1 210.425 198.696 209.494 198.935 208.444C198.958 208.314 199.007 208.189 199.078 208.077C199.15 207.966 199.243 207.869 199.351 207.794C199.573 207.647 199.844 207.595 200.104 207.647ZM186.028 207.007V205.537C185.474 205.364 184.937 205.14 184.424 204.866L183.393 205.907C183.208 206.094 182.957 206.198 182.695 206.198C182.433 206.198 182.182 206.094 181.997 205.907L179.194 203.076C179.101 202.983 179.028 202.873 178.979 202.751C178.93 202.629 178.905 202.498 178.906 202.367C178.905 202.236 178.93 202.107 178.979 201.987C179.029 201.867 179.101 201.758 179.194 201.667L180.224 200.627C179.954 200.108 179.731 199.565 179.56 199.006H178.104C177.841 199.006 177.589 198.9 177.404 198.713C177.218 198.525 177.113 198.271 177.113 198.006V194.006C177.113 193.74 177.218 193.486 177.404 193.299C177.589 193.111 177.841 193.006 178.104 193.006H179.56C179.731 192.446 179.954 191.903 180.224 191.385L179.194 190.345C179.101 190.254 179.029 190.145 178.979 190.024C178.93 189.904 178.905 189.775 178.906 189.645C178.905 189.513 178.93 189.382 178.979 189.261C179.028 189.139 179.101 189.028 179.194 188.935L181.997 186.101C182.182 185.915 182.433 185.81 182.695 185.81C182.957 185.81 183.208 185.915 183.393 186.101L184.424 187.142C184.937 186.87 185.474 186.646 186.028 186.474V185.001C186.028 184.736 186.133 184.481 186.318 184.294C186.504 184.106 186.756 184.001 187.019 184.001H188C187.863 182.935 187.359 181.952 186.578 181.222C185.796 180.492 184.786 180.062 183.722 180.008C182.659 179.953 181.61 180.276 180.759 180.922C179.908 181.568 179.308 182.495 179.065 183.541C179.027 183.74 178.93 183.922 178.787 184.063C178.643 184.204 178.46 184.298 178.262 184.331C177.254 184.487 176.332 184.996 175.658 185.77C174.984 186.544 174.602 187.532 174.578 188.562C174.581 188.872 174.621 189.181 174.696 189.482C174.731 189.616 174.736 189.756 174.713 189.892C174.689 190.028 174.636 190.158 174.558 190.272C174.484 190.386 174.388 190.484 174.276 190.559C174.163 190.635 174.037 190.687 173.904 190.712C172.947 190.822 172.056 191.261 171.381 191.956C170.707 192.65 170.289 193.557 170.199 194.526C170.108 195.494 170.35 196.465 170.884 197.274C171.418 198.084 172.211 198.683 173.131 198.973C173.286 199.028 173.424 199.121 173.534 199.244C173.644 199.366 173.723 199.515 173.762 199.675C173.801 199.836 173.8 200.004 173.759 200.164C173.718 200.325 173.639 200.472 173.528 200.594C172.798 201.361 172.387 202.38 172.379 203.443C172.414 204.619 172.909 205.733 173.755 206.541C174.602 207.349 175.731 207.785 176.895 207.754C177.232 207.751 177.567 207.714 177.896 207.644C178.157 207.592 178.427 207.646 178.649 207.794C178.757 207.869 178.85 207.966 178.922 208.077C178.993 208.189 179.042 208.314 179.065 208.444C179.303 209.494 179.9 210.425 180.75 211.074C181.6 211.724 182.649 212.052 183.715 211.999C184.78 211.947 185.792 211.518 186.576 210.788C187.359 210.057 187.863 209.072 188 208.004H187.019C186.757 208.004 186.505 207.899 186.319 207.713C186.134 207.526 186.029 207.272 186.028 207.007Z" fill="#828282"/>
<path d="M189 200.006C191.188 200.006 192.962 198.215 192.962 196.006C192.962 193.797 191.188 192.006 189 192.006C186.812 192.006 185.038 193.797 185.038 196.006C185.038 198.215 186.812 200.006 189 200.006Z" fill="#828282"/>
<path d="M189 211.037C188.4 211.956 187.581 212.709 186.62 213.228C185.658 213.747 184.583 214.015 183.493 214.008H194.507C193.417 214.015 192.342 213.747 191.38 213.228C190.419 212.709 189.6 211.956 189 211.037Z" fill="#828282"/>
<path d="M181.076 214.008H183.493C182.159 214.021 180.854 213.618 179.757 212.854C178.659 212.089 177.822 211.001 177.361 209.737C177.203 209.747 177.054 209.757 176.896 209.757C175.205 209.788 173.572 209.141 172.354 207.958C171.136 206.775 170.432 205.153 170.398 203.447C170.399 202.335 170.704 201.245 171.279 200.297C170.237 199.69 169.394 198.789 168.854 197.703C168.315 196.618 168.104 195.396 168.246 194.19C168.389 192.984 168.879 191.847 169.656 190.92C170.433 189.993 171.462 189.317 172.616 188.975C172.606 188.835 172.597 188.705 172.597 188.565C172.613 187.177 173.08 185.834 173.927 184.74C174.773 183.647 175.952 182.865 177.282 182.514C177.707 181.192 178.538 180.042 179.655 179.231C180.772 178.419 182.116 177.988 183.493 178.001C184.583 177.994 185.658 178.263 186.62 178.782C187.581 179.301 188.4 180.054 189 180.973C189.6 180.054 190.418 179.301 191.38 178.782C192.342 178.263 193.417 177.994 194.507 178.001C195.883 177.988 197.228 178.418 198.345 179.23C199.462 180.041 200.293 181.191 200.718 182.512C202.048 182.863 203.227 183.645 204.073 184.738C204.92 185.832 205.387 187.175 205.403 188.563C205.403 188.703 205.393 188.833 205.384 188.973C206.54 189.314 207.571 189.99 208.349 190.918C209.127 191.845 209.618 192.983 209.761 194.191C209.903 195.398 209.691 196.62 209.15 197.707C208.61 198.793 207.765 199.695 206.721 200.301C207.296 201.249 207.601 202.339 207.602 203.451C207.568 205.157 206.864 206.779 205.646 207.962C204.428 209.145 202.795 209.792 201.104 209.761C200.946 209.761 200.797 209.751 200.639 209.741C200.178 211.005 199.341 212.093 198.243 212.858C197.146 213.622 195.841 214.025 194.507 214.012H196.924C197.187 214.012 197.439 214.118 197.625 214.305C197.811 214.493 197.915 214.747 197.915 215.012V217.012C197.914 217.07 197.907 217.127 197.895 217.183C202.732 215.112 206.712 211.417 209.16 206.723C211.607 202.029 212.373 196.626 211.326 191.427C210.279 186.229 207.485 181.556 203.416 178.2C199.347 174.843 194.254 173.01 189 173.01C183.746 173.01 178.653 174.843 174.584 178.2C170.515 181.556 167.721 186.229 166.674 191.427C165.627 196.626 166.393 202.029 168.84 206.723C171.288 211.417 175.267 215.112 180.105 217.183C180.093 217.127 180.086 217.07 180.085 217.012V215.012C180.085 214.881 180.11 214.75 180.159 214.628C180.209 214.507 180.282 214.396 180.374 214.303C180.466 214.209 180.575 214.135 180.696 214.085C180.816 214.034 180.945 214.008 181.076 214.008Z" fill="#828282"/>
<path d="M189.991 204.777C189.99 204.549 190.066 204.327 190.206 204.149C190.347 203.971 190.543 203.847 190.763 203.797C191.63 203.598 192.457 203.253 193.21 202.777C193.4 202.656 193.625 202.604 193.848 202.629C194.071 202.655 194.279 202.756 194.438 202.917L195.3 203.787L196.706 202.367L195.845 201.497C195.686 201.336 195.585 201.126 195.56 200.901C195.535 200.676 195.586 200.449 195.706 200.257C196.182 199.498 196.524 198.662 196.716 197.786C196.766 197.563 196.889 197.365 197.066 197.223C197.242 197.081 197.461 197.005 197.687 197.006H198.905V195.006H197.687C197.461 195.007 197.242 194.93 197.066 194.788C196.889 194.646 196.766 194.448 196.716 194.226C196.524 193.349 196.182 192.513 195.706 191.755C195.586 191.563 195.535 191.336 195.56 191.11C195.585 190.885 195.686 190.675 195.845 190.515L196.706 189.645L195.3 188.225L194.438 189.095C194.279 189.255 194.071 189.357 193.848 189.382C193.625 189.407 193.4 189.356 193.21 189.235C192.457 188.758 191.63 188.413 190.763 188.215C190.543 188.165 190.347 188.04 190.206 187.862C190.066 187.684 189.99 187.463 189.991 187.235V186.001H188.009V187.232C188.01 187.46 187.934 187.681 187.794 187.859C187.653 188.037 187.457 188.162 187.237 188.212C186.37 188.41 185.543 188.755 184.79 189.232C184.6 189.353 184.375 189.404 184.152 189.379C183.929 189.354 183.721 189.252 183.562 189.092L182.7 188.222L181.294 189.642L182.155 190.512C182.314 190.672 182.415 190.882 182.44 191.107C182.465 191.333 182.414 191.56 182.294 191.752C181.818 192.51 181.476 193.346 181.284 194.223C181.234 194.445 181.111 194.643 180.934 194.785C180.758 194.927 180.539 195.004 180.313 195.003H179.095V197.003H180.313C180.539 197.002 180.758 197.078 180.934 197.22C181.111 197.362 181.234 197.56 181.284 197.783C181.476 198.659 181.818 199.495 182.294 200.254C182.414 200.446 182.465 200.673 182.44 200.898C182.415 201.123 182.314 201.333 182.155 201.494L181.294 202.364L182.7 203.784L183.562 202.914C183.721 202.753 183.929 202.652 184.152 202.626C184.375 202.601 184.6 202.653 184.79 202.774C185.543 203.25 186.37 203.595 187.237 203.794C187.457 203.844 187.653 203.968 187.794 204.146C187.934 204.324 188.01 204.546 188.009 204.774V206.004H189.991V204.777ZM183.057 196.006C183.057 194.819 183.405 193.659 184.058 192.672C184.711 191.686 185.64 190.917 186.726 190.463C187.812 190.008 189.007 189.89 190.159 190.121C191.312 190.353 192.371 190.924 193.203 191.763C194.034 192.602 194.6 193.671 194.829 194.835C195.058 195.999 194.941 197.205 194.491 198.302C194.041 199.398 193.279 200.335 192.302 200.994C191.325 201.654 190.175 202.006 189 202.006C187.424 202.006 185.912 201.373 184.797 200.248C183.683 199.123 183.057 197.597 183.057 196.006ZM188.019 184.001H188C188.009 184.101 188.009 184.211 188.009 184.311C188.009 184.201 188.009 184.101 188.019 184.001ZM188 208.007H188.019C188.009 207.907 188.009 207.807 188.009 207.697C188.009 207.8 188.009 207.907 188 208.007ZM189.991 184.314C189.991 184.214 189.991 184.104 190 184.004H189.981C189.991 184.101 189.991 184.201 189.991 184.314ZM189.981 208.007H190C189.991 207.907 189.991 207.797 189.991 207.697C189.991 207.807 189.991 207.907 189.981 208.007Z" fill="#828282"/>
<path d="M331.19 166.547V165C331.367 165.156 331.578 165.297 331.823 165.422C332.073 165.547 332.333 165.654 332.604 165.742C332.88 165.826 333.156 165.891 333.432 165.938C333.708 165.984 333.963 166.008 334.198 166.008C335.005 166.008 335.607 165.859 336.002 165.562C336.404 165.26 336.604 164.828 336.604 164.266C336.604 163.964 336.536 163.701 336.401 163.477C336.271 163.253 336.088 163.049 335.854 162.867C335.62 162.68 335.341 162.503 335.018 162.336C334.7 162.164 334.357 161.984 333.987 161.797C333.596 161.599 333.232 161.398 332.893 161.195C332.555 160.992 332.26 160.768 332.01 160.523C331.76 160.279 331.562 160.003 331.417 159.695C331.276 159.383 331.206 159.018 331.206 158.602C331.206 158.091 331.318 157.648 331.542 157.273C331.766 156.893 332.06 156.581 332.424 156.336C332.789 156.091 333.203 155.909 333.667 155.789C334.135 155.669 334.612 155.609 335.096 155.609C336.2 155.609 337.005 155.742 337.51 156.008V157.484C336.849 157.026 336 156.797 334.963 156.797C334.677 156.797 334.391 156.828 334.104 156.891C333.818 156.948 333.562 157.044 333.338 157.18C333.114 157.315 332.932 157.49 332.792 157.703C332.651 157.917 332.581 158.177 332.581 158.484C332.581 158.771 332.633 159.018 332.737 159.227C332.846 159.435 333.005 159.625 333.213 159.797C333.422 159.969 333.674 160.135 333.971 160.297C334.273 160.458 334.62 160.635 335.01 160.828C335.411 161.026 335.792 161.234 336.151 161.453C336.51 161.672 336.825 161.914 337.096 162.18C337.367 162.445 337.581 162.74 337.737 163.062C337.898 163.385 337.979 163.755 337.979 164.172C337.979 164.724 337.87 165.193 337.651 165.578C337.437 165.958 337.146 166.268 336.776 166.508C336.411 166.747 335.989 166.919 335.51 167.023C335.031 167.133 334.526 167.188 333.995 167.188C333.818 167.188 333.599 167.172 333.338 167.141C333.078 167.115 332.812 167.073 332.542 167.016C332.271 166.964 332.013 166.898 331.768 166.82C331.529 166.737 331.336 166.646 331.19 166.547ZM347.111 163.32H341.463C341.484 164.211 341.723 164.898 342.182 165.383C342.64 165.867 343.27 166.109 344.072 166.109C344.973 166.109 345.801 165.812 346.557 165.219V166.422C345.853 166.932 344.924 167.188 343.767 167.188C342.637 167.188 341.749 166.826 341.103 166.102C340.458 165.372 340.135 164.349 340.135 163.031C340.135 161.786 340.486 160.773 341.189 159.992C341.898 159.206 342.775 158.812 343.822 158.812C344.869 158.812 345.679 159.151 346.252 159.828C346.825 160.505 347.111 161.445 347.111 162.648V163.32ZM345.799 162.234C345.794 161.495 345.614 160.919 345.26 160.508C344.911 160.096 344.424 159.891 343.799 159.891C343.195 159.891 342.682 160.107 342.26 160.539C341.838 160.971 341.577 161.536 341.478 162.234H345.799ZM355.423 167H354.142V165.75H354.111C353.553 166.708 352.733 167.188 351.65 167.188C350.853 167.188 350.228 166.977 349.775 166.555C349.327 166.133 349.103 165.573 349.103 164.875C349.103 163.38 349.983 162.51 351.743 162.266L354.142 161.93C354.142 160.57 353.592 159.891 352.493 159.891C351.53 159.891 350.66 160.219 349.884 160.875V159.562C350.671 159.062 351.577 158.812 352.603 158.812C354.483 158.812 355.423 159.807 355.423 161.797V167ZM354.142 162.953L352.212 163.219C351.618 163.302 351.171 163.451 350.868 163.664C350.566 163.872 350.415 164.245 350.415 164.781C350.415 165.172 350.553 165.492 350.829 165.742C351.111 165.987 351.483 166.109 351.947 166.109C352.582 166.109 353.105 165.888 353.517 165.445C353.934 164.997 354.142 164.432 354.142 163.75V162.953ZM362.649 160.297C362.425 160.125 362.102 160.039 361.68 160.039C361.133 160.039 360.675 160.297 360.305 160.812C359.941 161.328 359.758 162.031 359.758 162.922V167H358.477V159H359.758V160.648H359.79C359.972 160.086 360.251 159.648 360.626 159.336C361.001 159.018 361.42 158.859 361.883 158.859C362.217 158.859 362.472 158.896 362.649 158.969V160.297ZM370.133 166.633C369.518 167.003 368.789 167.188 367.945 167.188C366.805 167.188 365.883 166.818 365.18 166.078C364.482 165.333 364.133 164.37 364.133 163.188C364.133 161.87 364.51 160.812 365.266 160.016C366.021 159.214 367.029 158.812 368.289 158.812C368.992 158.812 369.612 158.943 370.148 159.203V160.516C369.555 160.099 368.919 159.891 368.242 159.891C367.424 159.891 366.753 160.185 366.227 160.773C365.706 161.357 365.445 162.125 365.445 163.078C365.445 164.016 365.69 164.755 366.18 165.297C366.674 165.839 367.336 166.109 368.164 166.109C368.862 166.109 369.518 165.878 370.133 165.414V166.633ZM379.351 167H378.07V162.391C378.07 160.724 377.45 159.891 376.21 159.891C375.585 159.891 375.059 160.133 374.632 160.617C374.205 161.096 373.992 161.714 373.992 162.469V167H372.71V155.156H373.992V160.328H374.023C374.637 159.318 375.512 158.812 376.648 158.812C378.45 158.812 379.351 159.898 379.351 162.07V167ZM383.069 156.969C382.84 156.969 382.645 156.891 382.483 156.734C382.322 156.578 382.241 156.38 382.241 156.141C382.241 155.901 382.322 155.703 382.483 155.547C382.645 155.385 382.84 155.305 383.069 155.305C383.303 155.305 383.501 155.385 383.663 155.547C383.829 155.703 383.913 155.901 383.913 156.141C383.913 156.37 383.829 156.565 383.663 156.727C383.501 156.888 383.303 156.969 383.069 156.969ZM383.694 167H382.413V159H383.694V167ZM393.568 167H392.287V162.438C392.287 160.74 391.667 159.891 390.428 159.891C389.787 159.891 389.256 160.133 388.834 160.617C388.417 161.096 388.209 161.703 388.209 162.438V167H386.928V159H388.209V160.328H388.24C388.844 159.318 389.719 158.812 390.865 158.812C391.74 158.812 392.41 159.096 392.873 159.664C393.337 160.227 393.568 161.042 393.568 162.109V167ZM403.458 166.359C403.458 169.297 402.052 170.766 399.24 170.766C398.25 170.766 397.386 170.578 396.646 170.203V168.922C397.547 169.422 398.406 169.672 399.224 169.672C401.193 169.672 402.177 168.625 402.177 166.531V165.656H402.146C401.537 166.677 400.62 167.188 399.396 167.188C398.401 167.188 397.599 166.833 396.99 166.125C396.386 165.411 396.083 164.456 396.083 163.258C396.083 161.898 396.409 160.818 397.06 160.016C397.716 159.214 398.612 158.812 399.747 158.812C400.826 158.812 401.625 159.245 402.146 160.109H402.177V159H403.458V166.359ZM402.177 163.383V162.203C402.177 161.568 401.961 161.023 401.529 160.57C401.102 160.117 400.568 159.891 399.927 159.891C399.136 159.891 398.516 160.18 398.068 160.758C397.62 161.331 397.396 162.135 397.396 163.172C397.396 164.062 397.609 164.776 398.037 165.312C398.469 165.844 399.039 166.109 399.747 166.109C400.466 166.109 401.05 165.854 401.497 165.344C401.951 164.833 402.177 164.18 402.177 163.383ZM338.206 191H332.268V179.797H337.956V180.984H333.581V184.711H337.627V185.891H333.581V189.812H338.206V191ZM346.674 183L343.986 187.047L346.627 191H345.135L343.564 188.406C343.465 188.245 343.348 188.042 343.213 187.797H343.182C343.156 187.844 343.033 188.047 342.814 188.406L341.213 191H339.736L342.463 187.078L339.853 183H341.346L342.892 185.734C343.007 185.938 343.119 186.146 343.228 186.359H343.26L345.26 183H346.674ZM354.267 190.633C353.652 191.003 352.923 191.188 352.079 191.188C350.939 191.188 350.017 190.818 349.314 190.078C348.616 189.333 348.267 188.37 348.267 187.188C348.267 185.87 348.644 184.812 349.4 184.016C350.155 183.214 351.163 182.812 352.423 182.812C353.126 182.812 353.746 182.943 354.282 183.203V184.516C353.689 184.099 353.053 183.891 352.376 183.891C351.559 183.891 350.887 184.185 350.361 184.773C349.84 185.357 349.579 186.125 349.579 187.078C349.579 188.016 349.824 188.755 350.314 189.297C350.809 189.839 351.47 190.109 352.298 190.109C352.996 190.109 353.652 189.878 354.267 189.414V190.633ZM363.274 187.32H357.626C357.646 188.211 357.886 188.898 358.344 189.383C358.803 189.867 359.433 190.109 360.235 190.109C361.136 190.109 361.964 189.812 362.719 189.219V190.422C362.016 190.932 361.087 191.188 359.93 191.188C358.8 191.188 357.912 190.826 357.266 190.102C356.62 189.372 356.297 188.349 356.297 187.031C356.297 185.786 356.649 184.773 357.352 183.992C358.061 183.206 358.938 182.812 359.985 182.812C361.032 182.812 361.842 183.151 362.415 183.828C362.988 184.505 363.274 185.445 363.274 186.648V187.32ZM361.962 186.234C361.956 185.495 361.777 184.919 361.422 184.508C361.074 184.096 360.587 183.891 359.962 183.891C359.357 183.891 358.844 184.107 358.422 184.539C358.001 184.971 357.74 185.536 357.641 186.234H361.962ZM367.141 191H365.859V179.156H367.141V191ZM376.804 187.32H371.156C371.176 188.211 371.416 188.898 371.874 189.383C372.333 189.867 372.963 190.109 373.765 190.109C374.666 190.109 375.494 189.812 376.249 189.219V190.422C375.546 190.932 374.617 191.188 373.46 191.188C372.33 191.188 371.442 190.826 370.796 190.102C370.15 189.372 369.827 188.349 369.827 187.031C369.827 185.786 370.179 184.773 370.882 183.992C371.591 183.206 372.468 182.812 373.515 182.812C374.562 182.812 375.372 183.151 375.945 183.828C376.518 184.505 376.804 185.445 376.804 186.648V187.32ZM375.492 186.234C375.486 185.495 375.307 184.919 374.952 184.508C374.604 184.096 374.117 183.891 373.492 183.891C372.887 183.891 372.374 184.107 371.952 184.539C371.531 184.971 371.27 185.536 371.171 186.234H375.492ZM386.03 191H384.749V186.438C384.749 184.74 384.129 183.891 382.889 183.891C382.249 183.891 381.717 184.133 381.296 184.617C380.879 185.096 380.671 185.703 380.671 186.438V191H379.389V183H380.671V184.328H380.702C381.306 183.318 382.181 182.812 383.327 182.812C384.202 182.812 384.871 183.096 385.335 183.664C385.798 184.227 386.03 185.042 386.03 186.109V191ZM394.545 190.633C393.93 191.003 393.201 191.188 392.357 191.188C391.217 191.188 390.295 190.818 389.592 190.078C388.894 189.333 388.545 188.37 388.545 187.188C388.545 185.87 388.923 184.812 389.678 184.016C390.433 183.214 391.441 182.812 392.701 182.812C393.404 182.812 394.024 182.943 394.561 183.203V184.516C393.967 184.099 393.331 183.891 392.654 183.891C391.837 183.891 391.165 184.185 390.639 184.773C390.118 185.357 389.857 186.125 389.857 187.078C389.857 188.016 390.102 188.755 390.592 189.297C391.087 189.839 391.748 190.109 392.576 190.109C393.274 190.109 393.93 189.878 394.545 189.414V190.633ZM403.552 187.32H397.904C397.925 188.211 398.164 188.898 398.622 189.383C399.081 189.867 399.711 190.109 400.513 190.109C401.414 190.109 402.242 189.812 402.997 189.219V190.422C402.294 190.932 401.365 191.188 400.208 191.188C399.078 191.188 398.19 190.826 397.544 190.102C396.899 189.372 396.576 188.349 396.576 187.031C396.576 185.786 396.927 184.773 397.63 183.992C398.339 183.206 399.216 182.812 400.263 182.812C401.31 182.812 402.12 183.151 402.693 183.828C403.266 184.505 403.552 185.445 403.552 186.648V187.32ZM402.24 186.234C402.234 185.495 402.055 184.919 401.701 184.508C401.352 184.096 400.865 183.891 400.24 183.891C399.636 183.891 399.122 184.107 398.701 184.539C398.279 184.971 398.018 185.536 397.919 186.234H402.24Z" fill="#333333"/>
<path d="M370.353 108.99L360.549 107.518L356.172 98.6826C355.86 98.0535 355.378 97.524 354.781 97.1539C354.184 96.7838 353.496 96.5876 352.793 96.5876C352.091 96.5876 351.402 96.7838 350.805 97.1539C350.209 97.524 349.727 98.0535 349.414 98.6826L344.997 107.558L335.234 108.99C334.536 109.087 333.88 109.378 333.341 109.831C332.802 110.285 332.402 110.881 332.188 111.552C331.968 112.222 331.941 112.94 332.108 113.624C332.276 114.309 332.632 114.933 333.136 115.425L340.216 122.385L338.562 132.107C338.431 132.805 338.499 133.525 338.758 134.185C339.018 134.845 339.458 135.419 340.029 135.84C340.6 136.262 341.278 136.513 341.985 136.567C342.693 136.62 343.401 136.473 344.029 136.142L352.763 131.563L361.558 136.142C362.185 136.473 362.894 136.62 363.601 136.567C364.309 136.513 364.987 136.262 365.557 135.84C366.128 135.419 366.569 134.845 366.828 134.185C367.088 133.525 367.156 132.805 367.025 132.107L365.391 122.385L372.451 115.506C372.955 115.013 373.311 114.39 373.478 113.705C373.646 113.02 373.618 112.303 373.399 111.633C373.198 110.947 372.804 110.333 372.264 109.865C371.724 109.396 371.06 109.093 370.353 108.99ZM362.567 119.419C362.087 119.881 361.729 120.454 361.525 121.088C361.321 121.721 361.277 122.395 361.397 123.05L362.97 132.249L354.7 127.912C354.117 127.597 353.466 127.431 352.803 127.428C352.1 127.41 351.405 127.577 350.786 127.912L342.516 132.249L344.109 123.05C344.226 122.394 344.179 121.719 343.971 121.085C343.764 120.451 343.402 119.879 342.919 119.419L336.343 112.904L345.602 111.552C346.265 111.466 346.896 111.216 347.438 110.825C347.98 110.434 348.417 109.915 348.708 109.313L352.844 100.942L356.878 109.313C357.17 109.915 357.607 110.434 358.149 110.825C358.691 111.216 359.322 111.466 359.985 111.552L369.223 112.904L362.567 119.419ZM389.254 84.3808L382.96 83.473L380.156 77.7846C379.891 77.2488 379.482 76.7978 378.974 76.4824C378.466 76.1671 377.88 76 377.282 76C376.684 76 376.098 76.1671 375.59 76.4824C375.082 76.7978 374.673 77.2488 374.407 77.7846L371.604 83.473L365.31 84.3808C364.719 84.4677 364.165 84.7177 363.709 85.1025C363.253 85.4874 362.913 85.9919 362.728 86.5593C362.538 87.1276 362.512 87.7382 362.655 88.3202C362.798 88.9022 363.103 89.4318 363.535 89.8473L368.073 94.2852L367.004 100.559C366.938 101.014 366.97 101.478 367.098 101.919C367.227 102.361 367.449 102.769 367.749 103.118C368.05 103.466 368.421 103.745 368.839 103.937C369.257 104.129 369.712 104.229 370.171 104.23C370.69 104.227 371.202 104.103 371.664 103.867L377.272 100.902L382.9 103.867C383.43 104.148 384.029 104.274 384.628 104.231C385.227 104.189 385.801 103.979 386.287 103.626C386.772 103.273 387.149 102.791 387.374 102.234C387.599 101.678 387.663 101.069 387.56 100.478L386.47 94.2246L391.029 89.7868C391.461 89.3713 391.766 88.8417 391.909 88.2597C392.052 87.6777 392.026 87.0671 391.836 86.4988C391.64 85.9439 391.295 85.4532 390.84 85.0799C390.385 84.7066 389.837 84.4648 389.254 84.3808ZM383.444 91.6225C383.04 92.0041 382.738 92.481 382.565 93.0095C382.392 93.5381 382.355 94.1015 382.456 94.6483L383.283 99.5702L378.886 97.2504C378.393 96.9856 377.842 96.847 377.282 96.847C376.722 96.847 376.171 96.9856 375.678 97.2504L371.261 99.5702L372.108 94.6483C372.205 94.1015 372.166 93.5392 371.994 93.0113C371.821 92.4834 371.521 92.0063 371.119 91.6225L367.549 88.0924L372.491 87.3864C373.041 87.3048 373.563 87.0916 374.012 86.765C374.462 86.4383 374.826 86.0079 375.073 85.5104L377.272 81.0726L379.491 85.5507C379.738 86.0483 380.102 86.4787 380.552 86.8053C381.001 87.1319 381.523 87.3451 382.073 87.4267L387.015 88.0924L383.444 91.6225Z" fill="#828282"/>
<path d="M139.028 8.65731H161.908V4.74097H136.142C135.524 4.74097 134.905 4.94709 134.493 5.56546C134.081 5.97771 133.875 6.8022 134.081 7.42057C134.493 8.65731 143.769 36.0717 168.091 39.3697C167.061 37.9269 166.236 36.484 165.412 34.835C149.952 30.9187 141.707 15.0471 139.028 8.65731ZM200.04 56.478C196.949 56.478 194.063 56.0657 191.177 55.4474V90.2822H209.11V55.2412C206.018 56.0657 203.132 56.478 200.04 56.478Z" fill="#CEA556"/>
<path d="M220.859 94.1986H179.016V104.505H220.859V94.1986Z" fill="#CEA556"/>
<path d="M229.928 108.421H170.153V118.727H229.928V108.421Z" fill="#CEA556"/>
<path d="M200.04 52.3554C218.798 52.3554 234.257 37.1022 234.257 18.1389V7.0082V6.59595V0H165.824V18.1389C165.824 37.1022 181.283 52.3554 200.04 52.3554Z" fill="#CEA556"/>
<path d="M265.588 5.56546C265.176 4.94709 264.557 4.74097 263.939 4.74097H238.173V8.65731H261.053C258.373 15.0471 250.129 30.9187 234.463 34.6289C233.639 36.2779 232.814 37.7207 231.784 39.1636C256.312 36.0717 265.588 8.45119 266 7.42057C266 6.8022 266 6.18383 265.588 5.56546Z" fill="#CEA556"/>
<path d="M208.435 20.0972L202.022 19.5351L199.515 13.5337L197.009 19.5442L190.595 20.0972L195.466 24.3852L194.003 30.7584L199.515 27.3769L205.028 30.7584L203.574 24.3852L208.435 20.0972ZM199.515 25.6816L196.161 27.7395L197.053 23.8594L194.092 21.2485L197.999 20.904L199.515 17.2506L201.041 20.9131L204.948 21.2576L201.986 23.8685L202.878 27.7486L199.515 25.6816Z" fill="#F2F2F2"/>
</svg>
