<svg width="64" height="59" viewBox="0 0 64 59" fill="none" xmlns="http://www.w3.org/2000/svg">
<path d="M19.8621 40.8276H17.6552C16.4363 40.8276 15.4483 41.8157 15.4483 43.0345V56.2759C15.4483 57.4947 16.4363 58.4828 17.6552 58.4828H19.8621C21.0809 58.4828 22.069 57.4947 22.069 56.2759V43.0345C22.069 41.8157 21.0809 40.8276 19.8621 40.8276Z" fill="#CEA556"/>
<path d="M6.62069 47.4482H4.41379C3.19496 47.4482 2.20689 48.4363 2.20689 49.6551V56.2758C2.20689 57.4947 3.19496 58.4827 4.41379 58.4827H6.62069C7.83952 58.4827 8.82758 57.4947 8.82758 56.2758V49.6551C8.82758 48.4363 7.83952 47.4482 6.62069 47.4482Z" fill="#CEA556"/>
<path d="M33.1034 34.2069H30.8965C29.6777 34.2069 28.6896 35.195 28.6896 36.4138V56.2759C28.6896 57.4947 29.6777 58.4828 30.8965 58.4828H33.1034C34.3223 58.4828 35.3103 57.4947 35.3103 56.2759V36.4138C35.3103 35.195 34.3223 34.2069 33.1034 34.2069Z" fill="#CEA556"/>
<path d="M46.3448 27.5861H44.1379C42.9191 27.5861 41.931 28.5741 41.931 29.793V56.2757C41.931 57.4946 42.9191 58.4826 44.1379 58.4826H46.3448C47.5637 58.4826 48.5517 57.4946 48.5517 56.2757V29.793C48.5517 28.5741 47.5637 27.5861 46.3448 27.5861Z" fill="#CEA556"/>
<path d="M59.5862 20.9656H57.3793C56.1605 20.9656 55.1724 21.9536 55.1724 23.1725V56.2759C55.1724 57.4948 56.1605 58.4828 57.3793 58.4828H59.5862C60.805 58.4828 61.7931 57.4948 61.7931 56.2759V23.1725C61.7931 21.9536 60.805 20.9656 59.5862 20.9656Z" fill="#CEA556"/>
<path d="M63.7352 0.386207L63.5697 0.231724C63.3983 0.0973745 63.1909 0.0167482 62.9738 0H58.4828C58.1901 0 57.9094 0.116256 57.7025 0.323193C57.4956 0.530129 57.3793 0.810795 57.3793 1.10345C57.3793 1.3961 57.4956 1.67677 57.7025 1.8837C57.9094 2.09064 58.1901 2.2069 58.4828 2.2069H60.1931L54.3559 7.94483C40.738 21.3144 22.394 28.7694 3.31034 28.6896H1.10345C0.810796 28.6896 0.530129 28.8059 0.323192 29.0128C0.116256 29.2198 0 29.5004 0 29.7931C0 30.0858 0.116256 30.3664 0.323192 30.5734C0.530129 30.7803 0.810796 30.8965 1.10345 30.8965H4.56828C23.7977 30.6603 42.191 22.9977 55.9007 9.51172L61.7931 3.72965V5.51724C61.7931 5.80989 61.9094 6.09056 62.1163 6.2975C62.3232 6.50443 62.6039 6.62069 62.8966 6.62069C63.1892 6.62069 63.4699 6.50443 63.6768 6.2975C63.8837 6.09056 64 5.80989 64 5.51724V1.10345C64 0.840447 63.9061 0.586087 63.7352 0.386207Z" fill="#CEA556"/>
</svg>
