<svg width="178" height="178" viewBox="0 0 178 178" fill="none" xmlns="http://www.w3.org/2000/svg">
<circle cx="89" cy="89" r="89" fill="#F2F2F2"/>
<path d="M89.5077 71.8093C79.7176 71.8093 71.8209 79.7077 71.8209 89.5C71.8209 99.2923 79.7176 107.191 89.5077 107.191C99.2978 107.191 107.194 99.2923 107.194 89.5C107.194 79.7077 99.2978 71.8093 89.5077 71.8093ZM89.5077 101.001C83.1811 101.001 78.009 95.8434 78.009 89.5C78.009 83.1566 83.1657 77.9987 89.5077 77.9987C95.8497 77.9987 101.006 83.1566 101.006 89.5C101.006 95.8434 95.8343 101.001 89.5077 101.001V101.001ZM112.043 71.0856C112.043 73.3797 110.196 75.2119 107.918 75.2119C105.624 75.2119 103.793 73.3643 103.793 71.0856C103.793 68.8069 105.64 66.9593 107.918 66.9593C110.196 66.9593 112.043 68.8069 112.043 71.0856ZM123.758 75.2735C123.496 69.7461 122.234 64.85 118.185 60.8161C114.152 56.7822 109.257 55.5196 103.731 55.2425C98.0355 54.9192 80.9645 54.9192 75.269 55.2425C69.7582 55.5042 64.8632 56.7668 60.8148 60.8007C56.7664 64.8346 55.5195 69.7307 55.2424 75.2581C54.9192 80.9549 54.9192 98.0297 55.2424 103.726C55.5041 109.254 56.7664 114.15 60.8148 118.184C64.8632 122.218 69.7428 123.48 75.269 123.758C80.9645 124.081 98.0355 124.081 103.731 123.758C109.257 123.496 114.152 122.233 118.185 118.184C122.218 114.15 123.48 109.254 123.758 103.726C124.081 98.0297 124.081 80.9703 123.758 75.2735V75.2735ZM116.4 109.839C115.199 112.857 112.875 115.182 109.842 116.398C105.301 118.199 94.5259 117.784 89.5077 117.784C84.4895 117.784 73.6989 118.184 69.1733 116.398C66.1562 115.197 63.8318 112.872 62.6158 109.839C60.8148 105.297 61.2304 94.5193 61.2304 89.5C61.2304 84.4807 60.8302 73.6877 62.6158 69.1611C63.8165 66.1433 66.1408 63.8184 69.1733 62.6021C73.7143 60.8007 84.4895 61.2164 89.5077 61.2164C94.5259 61.2164 105.317 60.8161 109.842 62.6021C112.859 63.803 115.184 66.1279 116.4 69.1611C118.201 73.7031 117.785 84.4807 117.785 89.5C117.785 94.5193 118.201 105.312 116.4 109.839Z" fill="black"/>
</svg>
