<svg width="60" height="60" viewBox="0 0 60 60" fill="none" xmlns="http://www.w3.org/2000/svg">
<path d="M14.5884 19.9402C15.2405 19.9402 15.8731 20.0348 16.4665 20.2207C18.7169 17.699 21.2104 15.4053 23.9107 13.3728C23.6332 12.2117 23.6874 10.996 24.0672 9.86415C21.0214 7.68115 17.7253 5.87046 14.2493 4.47067C10.9728 6.49725 8.11494 9.13279 5.83014 12.2348C7.52244 15.2348 9.5343 18.0294 11.8233 20.5728C12.658 20.1685 13.5939 19.9402 14.5884 19.9402ZM8.20393 26.3217C8.20393 25.425 8.39305 24.5707 8.72238 23.8011C6.67005 21.5454 4.82059 19.1132 3.1955 16.5326C1.0907 20.7108 -0.00382464 25.3248 1.61648e-05 30.0033C-0.00560273 35.4052 1.45372 40.7075 4.22262 45.3456C5.16969 40.0415 6.95265 34.9212 9.50495 30.1761C8.66029 29.0688 8.20314 27.7145 8.20393 26.3217V26.3217ZM30.1158 5.50763C31.8016 5.50763 33.3276 6.16306 34.4721 7.23262C37.8395 5.77904 41.3543 4.69445 44.9552 3.99784C40.408 1.37289 35.2489 -0.00611029 29.9984 2.03524e-05C26.3944 -0.00223044 22.8197 0.647353 19.4468 1.91741C22.0436 3.20007 24.5273 4.69997 26.8714 6.4011C27.8235 5.83371 28.9289 5.50763 30.1158 5.50763ZM39.6566 35.5696C40.049 34.7451 40.6152 34.0153 41.3163 33.4304C39.4494 27.6967 36.4908 22.3783 32.6037 17.7685C31.598 18.1941 30.5 18.3543 29.4146 18.2338C28.3293 18.1134 27.293 17.7162 26.4051 17.0804C24.0926 18.8371 21.9486 20.8054 20.0011 22.9598C20.4915 23.7362 20.806 24.6105 20.9226 25.5214C21.0392 26.4323 20.9551 27.3577 20.6761 28.2326C26.3832 32.0505 32.8655 34.5562 39.6566 35.5696V35.5696ZM47.9355 44.188C48.1738 47.5387 48.0854 50.9045 47.6714 54.238C52.8216 50.4809 56.6436 45.1833 58.585 39.1109C56.246 39.6776 53.8694 40.0754 51.4734 40.3011C51.1933 41.163 50.733 41.9553 50.123 42.6255C49.513 43.2957 48.7673 43.8283 47.9355 44.188V44.188ZM38.1632 39.8609C30.9086 38.6523 24.0011 35.8892 17.9143 31.7609C16.5278 32.6135 14.8675 32.9029 13.2743 32.5696C10.3446 38.1163 8.57089 44.2 8.06046 50.4522C10.935 53.5435 14.4294 55.9936 18.3154 57.6424C23.2412 50.0631 30.0903 43.927 38.1632 39.8609V39.8609ZM50.1365 7.76415C45.4288 8.22459 40.8187 9.3989 36.4644 11.2468C36.5836 12.4303 36.3678 13.6235 35.8416 14.6902C40.161 19.7562 43.4496 25.6169 45.5226 31.9435C46.7583 31.9658 47.961 32.3457 48.9853 33.0372C50.0096 33.7288 50.8115 34.7024 51.294 35.8402C54.183 35.5467 56.9937 34.9924 59.7001 34.1967C60.3922 29.3445 59.882 24.3966 58.2145 19.7877C56.5469 15.1788 53.773 11.05 50.1365 7.76415V7.76415ZM41.375 43.2685C33.855 46.7898 27.4125 52.2566 22.714 59.1032C25.0962 59.6996 27.5427 60.0008 29.9984 60C34.3719 60.0038 38.6929 59.0476 42.6565 57.1989C43.276 54.1728 43.6021 51.0456 43.6021 47.8435C43.6021 46.6859 43.5499 45.538 43.4618 44.4033C42.7003 44.1614 41.992 43.7763 41.375 43.2685Z" fill="#828282"/>
</svg>
