<svg width="85" height="89" viewBox="0 0 85 89" fill="none" xmlns="http://www.w3.org/2000/svg">
<path d="M55.9251 32.2517C54.4354 30.6769 51.9655 30.5982 50.3777 32.0942L43.0074 39.0825L35.6174 32.0745C34.0492 30.5785 31.5598 30.6572 30.07 32.232C28.5803 33.8068 28.6587 36.3069 30.2268 37.8029L37.2836 44.4959L30.2268 51.1889C28.6587 52.685 28.5803 55.1653 30.07 56.7598C30.8345 57.5866 31.8734 58 32.9123 58C33.8728 58 34.8529 57.6457 35.5978 56.9173L42.9878 49.9094L50.3777 56.9173C51.1422 57.626 52.1027 58 53.0632 58C54.1021 58 55.141 57.5866 55.9055 56.7598C57.3953 55.185 57.3169 52.685 55.7487 51.1889L48.692 44.4959L55.7487 37.8029C57.3561 36.3069 57.4149 33.8265 55.9251 32.2517Z" fill="#EB5F5F"/>
<rect x="0.5" y="0.5" width="84" height="88" rx="13.5" stroke="#F2F2F2"/>
</svg>
