<svg width="132" height="119" viewBox="0 0 132 119" fill="none" xmlns="http://www.w3.org/2000/svg">
<path d="M5.02783 8.65731H27.9075V4.74097H2.1421C1.52373 4.74097 0.905357 4.94709 0.49311 5.56546C0.0808632 5.97771 -0.12526 6.8022 0.0808633 7.42057C0.49311 8.65731 9.76867 36.0717 34.0912 39.3697C33.0606 37.9269 32.2361 36.484 31.4116 34.835C15.9524 30.9187 7.70743 15.0471 5.02783 8.65731ZM66.0404 56.478C62.9485 56.478 60.0628 56.0657 57.1771 55.4474V90.2822H75.1098V55.2412C72.018 56.0657 69.1322 56.478 66.0404 56.478Z" fill="#CEA556"/>
<path d="M86.8589 94.1986H45.0158V104.505H86.8589V94.1986Z" fill="#CEA556"/>
<path d="M95.9283 108.421H36.1525V118.727H95.9283V108.421Z" fill="#CEA556"/>
<path d="M66.0405 52.3554C84.7977 52.3554 100.257 37.1022 100.257 18.1389V7.0082V6.59595V0H31.824V18.1389C31.824 37.1022 47.2832 52.3554 66.0405 52.3554Z" fill="#CEA556"/>
<path d="M131.588 5.56546C131.176 4.94709 130.557 4.74097 129.939 4.74097H104.173V8.65731H127.053C124.373 15.0471 116.129 30.9187 100.463 34.6289C99.6386 36.2779 98.8141 37.7207 97.7835 39.1636C122.312 36.0717 131.588 8.45119 132 7.42057C132 6.8022 132 6.18383 131.588 5.56546Z" fill="#CEA556"/>
<path d="M74.4353 20.0972L68.0218 19.5351L65.5153 13.5337L63.0088 19.5442L56.5954 20.0972L61.4657 24.3852L60.0028 30.7584L65.5153 27.3769L71.0278 30.7584L69.5739 24.3852L74.4353 20.0972ZM65.5153 25.6816L62.1614 27.7395L63.0534 23.8594L60.092 21.2485L63.9989 20.904L65.5153 17.2506L67.0406 20.9131L70.9476 21.2576L67.9861 23.8685L68.8781 27.7486L65.5153 25.6816Z" fill="#F2F2F2"/>
</svg>
