<svg width="178" height="178" viewBox="0 0 178 178" fill="none" xmlns="http://www.w3.org/2000/svg">
<circle cx="89" cy="89" r="89" fill="#F2F2F2"/>
<path d="M117.599 74.3353C117.645 74.9748 117.645 75.6145 117.645 76.2541C117.645 95.7616 102.797 118.239 75.6599 118.239C67.2995 118.239 59.533 115.817 53 111.615C54.1879 111.751 55.3299 111.797 56.5634 111.797C63.4618 111.797 69.8121 109.467 74.8832 105.493C68.3959 105.356 62.9593 101.107 61.0862 95.2591C62 95.3961 62.9136 95.4875 63.8731 95.4875C65.198 95.4875 66.5229 95.3047 67.7563 94.985C60.995 93.6144 55.9237 87.6754 55.9237 80.5028V80.3201C57.8881 81.4166 60.1726 82.1018 62.5937 82.1931C58.6191 79.5433 56.0151 75.0205 56.0151 69.9037C56.0151 67.1627 56.746 64.65 58.0252 62.4571C65.2892 71.4114 76.208 77.259 88.4516 77.8987C88.2232 76.8022 88.0861 75.6602 88.0861 74.5181C88.0861 66.386 94.6648 59.7617 102.842 59.7617C107.091 59.7617 110.929 61.5434 113.624 64.4216C116.959 63.782 120.157 62.5485 122.99 60.8582C121.893 64.2846 119.563 67.1628 116.502 68.9901C119.472 68.6705 122.35 67.8479 125 66.7059C122.99 69.6297 120.477 72.2336 117.599 74.3353V74.3353Z" fill="black"/>
</svg>
