<svg width="28" height="27" viewBox="0 0 28 27" fill="none" xmlns="http://www.w3.org/2000/svg">
<path d="M26.9251 1.25171C25.4354 -0.323105 22.9655 -0.401846 21.3777 1.09423L14.0074 8.08249L6.61739 1.07455C5.04922 -0.42153 2.55976 -0.342788 1.07001 1.23203C-0.419749 2.80685 -0.34134 5.30687 1.22682 6.80295L8.28356 13.4959L1.22682 20.1889C-0.34134 21.685 -0.419749 24.1653 1.07001 25.7598C1.83449 26.5866 2.8734 27 3.9123 27C4.87281 27 5.85291 26.6457 6.59778 25.9173L13.9878 18.9094L21.3777 25.9173C22.1422 26.626 23.1027 27 24.0632 27C25.1021 27 26.141 26.5866 26.9055 25.7598C28.3953 24.185 28.3169 21.685 26.7487 20.1889L19.692 13.4959L26.7487 6.80295C28.3561 5.30687 28.4149 2.82653 26.9251 1.25171Z" fill="#EB5F5F"/>
</svg>
