<svg width="178" height="178" viewBox="0 0 178 178" fill="none" xmlns="http://www.w3.org/2000/svg">
<circle cx="89" cy="89" r="89" fill="#F2F2F2"/>
<path d="M133.049 67.0921C131.991 63.1196 128.874 59.991 124.918 58.9293C117.745 57 88.9852 57 88.9852 57C88.9852 57 60.2254 57 53.053 58.9293C49.096 59.9912 45.9796 63.1196 44.9218 67.0921C43 74.2924 43 89.3152 43 89.3152C43 89.3152 43 104.338 44.9218 111.538C45.9796 115.511 49.096 118.509 53.053 119.571C60.2254 121.5 88.9852 121.5 88.9852 121.5C88.9852 121.5 117.745 121.5 124.918 119.571C128.874 118.509 131.991 115.511 133.049 111.538C134.97 104.338 134.97 89.3152 134.97 89.3152C134.97 89.3152 134.97 74.2924 133.049 67.0921V67.0921ZM79.5791 102.955V75.6756L103.617 89.3155L79.5791 102.955V102.955Z" fill="black"/>
</svg>
